<?xml version="1.0" standalone="no"?>
<!DOCTYPE svg PUBLIC "-//W3C//DTD SVG 1.1//EN" "http://www.w3.org/Graphics/SVG/1.1/DTD/svg11.dtd" >
<svg xmlns="http://www.w3.org/2000/svg">
<metadata>Generated by IcoMoon</metadata>
<defs>
<font id="car" horiz-adv-x="1024">
<font-face units-per-em="1024" ascent="960" descent="-64" />
<missing-glyph horiz-adv-x="1024" />
<glyph unicode="&#x20;" d="" horiz-adv-x="512" />
<glyph unicode="&#xe600;" d="M363.2 570.080c-1.568 4.576-5.824 7.6-10.656 7.6h-36.544c-4.832 0-9.072-3.024-10.64-7.6l-80.848-236.832c-1.152-3.488-0.576-7.248 1.52-10.192 2.096-3.008 5.488-4.752 9.136-4.752h31.648c4.88 0 9.2 3.088 10.704 7.744l22.048 66.768h67.744l22.752-66.832c1.568-4.624 5.808-7.68 10.64-7.68h32.688c0.032 0 0.048 0 0.048 0 6.208 0 11.264 5.024 11.264 11.232 0 1.616-0.32 3.2-0.976 4.592l-80.528 235.952zM353.664 439.264h-40.224l18.16 53.616c0.592 1.76 1.168 3.6 1.76 5.344 0.592-1.872 1.232-3.792 1.904-5.712l18.4-53.248zM594.048 457.984c16.512 12.448 26.064 30.704 26.064 51.168 0 20.944-8.592 38.912-24.304 50.688-16.464 13.552-38.576 19.648-71.616 19.648-21.6 0-44-2.16-58.48-5.6-5.056-1.216-8.672-5.744-8.672-10.944v-232.656c0-5.632 4.176-10.432 9.696-11.152 7.888-1.088 24.768-2.96 49.024-2.96 41.856 0 71.040 8.272 89.088 25.12 15.712 14.4 24.064 33.616 24.064 55.728 0.032 30.032-16.016 49.888-34.864 60.96zM526.624 477.184h-16.448v55.616c4.448 0.4 9.744 0.592 15.776 0.592 40.384 0 40.384-19.888 40.384-27.376 0-17.536-15.568-28.832-39.712-28.832zM524.528 362.656c-5.744 0-10.448 0.064-14.352 0.256v68.96h14.032c15.008 0 49.872-3.36 49.872-34.432 0-28.784-26.928-34.784-49.552-34.784zM733.936 474.336c-33.888 13.12-39.888 21.808-39.888 35.184 0 11.168 8.768 24.24 33.36 24.24 22.144 0 36.16-8 38.72-9.552 2.96-1.84 6.528-2.176 9.744-1.008 3.264 1.168 5.76 3.728 6.88 6.976l8.4 24.944c1.696 5.056-0.368 10.624-4.992 13.328-14.208 8.336-35.248 13.136-57.664 13.136-50.912 0-87.872-31.776-87.872-75.552 0-35.424 22.896-60.928 69.84-78.016 31.264-11.664 37.344-22.112 37.344-36.208 0-18.256-14.32-29.136-38.32-29.136-16.928 0-35.040 5.072-48.384 13.664-2.928 1.856-6.608 2.288-9.872 1.104-3.296-1.2-5.904-3.856-6.944-7.216l-8.096-25.664c-1.488-4.816 0.336-9.952 4.512-12.752 15.296-10.176 42.752-17.36 66.672-17.36 64.832 0 93.856 40.080 93.856 79.824 0.016 47.648-34 67.232-67.296 80.064zM512.624 35.088c-227.696 0-412.944 185.28-412.944 412.912 0 227.68 185.232 412.912 412.944 412.912 227.632 0 412.88-185.232 412.88-412.912 0-227.632-185.248-412.912-412.88-412.912zM512.624 794c-190.816 0-346.016-155.216-346.016-346 0-190.816 155.2-345.984 346.016-345.984 190.752 0 345.968 155.168 345.968 345.984 0 190.768-155.216 346-345.968 346zM774.736 57.52c-9.664 15.728-0.528 38.688 18.224 52.88 217.712 183.92 217.632 491.312 0 675.184-18.752 14.224-27.888 37.152-18.224 52.896 9.648 15.76 37.088 16.768 58.832 0.32 252.304-209.632 252.352-571.968-0.032-781.584-21.712-16.432-49.168-15.44-58.8 0.304zM249.264 57.52c9.696 15.728 0.56 38.688-18.24 52.88-217.648 183.92-217.648 491.312 0 675.184 18.8 14.224 27.936 37.152 18.24 52.896-9.648 15.76-37.056 16.768-58.8 0.32-252.336-209.632-252.4-571.968 0-781.584 21.744-16.432 49.168-15.44 58.8 0.304z" />
<glyph unicode="&#xe601;" d="M377.12 460.784c137.952 0 249.808 111.84 249.808 249.792 0 137.968-111.856 249.792-249.808 249.792-137.968 0-249.792-111.824-249.792-249.792 0-137.952 111.824-249.792 249.792-249.792zM847.312 550.272c-176.064 57.088-214.128-223.664-296.992-233.184-37.664 0-98.128 61.856-207.568 61.856-109.456 0-318.672-328.336-318.672-328.336-19.088-30.208-12.672-87.28 19.104-104.704 31.232-17.104 76.064-14.272 107.456 19.040s207.568 252.192 207.568 252.192 96.016-100.336 255.952-99.92c233.344 0.624 409.216 375.936 233.152 433.056zM883.6 841.056c-70.192 0-127.088-56.896-127.088-127.056 0-70.192 56.912-127.072 127.088-127.072 70.16 0 127.056 56.896 127.056 127.072s-56.912 127.056-127.056 127.056z" />
<glyph unicode="&#xe602;" d="M760.432 522.48h-50.16v-50.16h-50.112v-50.16h50.128v-50.144h50.16v50.144h50.16v50.16h-50.16v50.16zM213.424 422.176h150.432v50.16h-150.432v-50.16zM932.752 728.32h-117.008v65.664h-160.768v-65.664h-285.92v65.664h-160.8v-65.664h-116.976c-49.792 0-90.288-40.496-90.288-90.288v-445.76c0-49.76 40.48-90.256 90.288-90.256h841.472c49.776 0 90.256 40.48 90.256 90.256v445.76c0 49.776-40.48 90.288-90.256 90.288zM942.784 192.272c0-5.424-4.592-10.016-10.032-10.016h-841.472c-5.44 0-10.048 4.592-10.048 10.016v445.76c0 5.456 4.608 10.048 10.048 10.048h841.472c5.44 0 10.032-4.592 10.032-10.048v-445.76z" />
<glyph unicode="&#xe603;" d="M546.944 923.296c-185.088 0-345.584-106.464-424.016-261.28 4.032 0.304 8.080 0.624 12.192 0.624 64.048 0 119.44-37.184 146.112-91.024 46.72 100.048 148.208 169.632 265.712 169.632 161.696 0 293.232-131.536 293.232-293.216 0-161.696-131.536-293.232-293.232-293.232-54.592 0-105.68 15.088-149.488 41.184 0.32-4.16 0.8-8.256 0.8-12.464 0-63.76-36.864-118.96-90.336-145.76 70.288-41.136 151.84-65.008 239.008-65.008 262.112 0 475.312 213.184 475.312 475.296 0.016 262.048-213.2 475.248-475.296 475.248z" />
<glyph unicode="&#xe604;" d="M398.256 183.504c0 4.224-0.496 8.32-0.8 12.464-2.064 27.456-10.816 53.168-25.056 75.44-10.096 9.968-19.2 20.912-27.472 32.48-7.824 7.088-16.144 13.712-25.376 19.264 0.192 3.216 0.288 6.4 0.288 9.632 0 5.712-0.4 11.408-1.008 17.040-7.6 17.632-13.008 36.336-16.368 55.808-5.008 10.016-10.928 19.6-17.936 28.432 9.008 20.528 13.696 42.736 13.696 65.472 0 25.888-6.224 50.304-17.008 72.048-26.672 53.84-82.064 91.024-146.112 91.024-4.112 0-8.16-0.32-12.192-0.624-84.256-6.272-150.912-76.64-150.912-162.464 0-36.976 12.64-72.672 35.296-101.296-9.024-20.528-13.712-42.752-13.712-65.472 0-58.192 30.176-110.464 78.736-139.632-0.176-3.248-0.288-6.432-0.288-9.664 0-89.936 73.168-163.12 163.104-163.12 26.176 0 50.848 6.336 72.784 17.36 53.456 26.848 90.336 82.032 90.336 145.808zM235.136 54.528c-71.216 0-128.96 57.744-128.96 128.976 0 10.064 1.184 19.84 3.376 29.248-47.904 18.816-81.824 65.472-81.824 120.032 0 26.16 7.824 50.464 21.216 70.816-26.288 23.632-42.8 57.84-42.8 95.952 0 71.216 57.712 128.96 128.944 128.96 71.216 0 128.944-57.744 128.944-128.96 0-26.176-7.808-50.496-21.2-70.816 26.256-23.632 42.8-57.84 42.8-95.936 0-10.064-1.2-19.872-3.376-29.248 47.888-18.848 81.808-65.44 81.808-120.032 0.016-71.232-57.712-128.992-128.928-128.992z" />
<glyph unicode="&#xe605;" d="M282.288 303.536c2.176 9.376 3.376 19.184 3.376 29.248 0 38.096-16.544 72.32-42.8 95.936 13.376 20.336 21.2 44.656 21.2 70.816 0 71.216-57.728 128.96-128.944 128.96-71.232 0-128.944-57.744-128.944-128.96 0-38.112 16.512-72.32 42.8-95.952-13.392-20.336-21.216-44.656-21.216-70.816 0-54.56 33.936-101.216 81.824-120.032-2.192-9.408-3.376-19.184-3.376-29.248 0-71.216 57.744-128.976 128.96-128.976s128.944 57.744 128.944 128.976c-0.032 54.608-33.952 101.2-81.824 120.048z" />
<glyph unicode="&#xe606;" d="M795.296 448c0 137.168-111.184 248.352-248.352 248.352s-248.368-111.184-248.368-248.352c0-14.48 1.488-28.576 3.872-42.368 3.344-19.472 8.768-38.192 16.368-55.808 7.024-16.336 15.888-31.648 26.096-45.936 8.272-11.584 17.376-22.512 27.472-32.48 44.864-44.352 106.496-71.776 174.56-71.776 137.168 0 248.352 111.184 248.352 248.368zM718.784 472.272c15.056 0 27.296-12.24 27.296-27.328 0-15.072-12.24-27.328-27.296-27.328-15.088 0-27.312 12.256-27.312 27.328 0 15.088 12.208 27.328 27.312 27.328zM546.944 644.080c15.072 0 27.312-12.24 27.312-27.296 0-15.072-12.24-27.312-27.312-27.312-15.088 0-27.312 12.24-27.312 27.312s12.208 27.296 27.312 27.296zM375.12 417.632c-15.072 0-27.312 12.256-27.312 27.328 0 15.088 12.224 27.328 27.312 27.328s27.312-12.24 27.312-27.328c-0.016-15.088-12.224-27.328-27.312-27.328zM450 448c0 53.552 43.408 96.976 96.944 96.976 53.568 0 96.96-43.424 96.96-96.976 0-53.536-43.392-96.944-96.96-96.944-53.536 0-96.944 43.408-96.944 96.944zM519.632 273.12c0 15.056 12.208 27.28 27.312 27.28 15.072 0 27.312-12.224 27.312-27.28 0-15.088-12.24-27.312-27.312-27.312-15.104 0-27.312 12.224-27.312 27.312z" />
<glyph unicode="&#xe607;" d="M90.208 365.488h1.888c-5.408 27.248-8.24 54.992-8.56 82.752 0.32 27.584 3.104 55.152 8.464 82.272h-1.888c0.592 3.408 1.216 6.816 1.888 10.224h-84.224c-4.96-30.704-7.248-61.584-6.96-92.416-0.304-31.056 2.032-62.128 7.040-93.040h84.224c-0.656 3.376-1.28 6.784-1.872 10.208zM123.52 629.696c26.96 59.696 66.144 112.88 116.592 158.192 13.376 10.704 22.416 25.584 24.864 40.736 0.72 4.432 0.8 8.752 0.336 12.896 1.008 9.44-0.688 18.304-5.008 25.792-11.968 20.72-45.28 22.48-69.856 2.704-71.408-63.008-125.12-142.304-156.784-230.096h3.808c-1.296-3.392-2.576-6.8-3.808-10.224h89.856zM870.896 425.616c0 1.696-0.064 3.408-0.096 5.104 0.032 1.696 0.096 3.408 0.096 5.104 0 197.92-161.008 358.928-358.912 358.928s-358.896-161.008-358.896-358.928c0-1.696 0.032-3.408 0.064-5.104-0.032-1.696-0.064-3.408-0.064-5.104 0-197.872 161.008-358.896 358.896-358.896s358.912 161.008 358.912 358.896zM511.984 685.376c141.536 0 256.976-113.728 259.696-254.656-2.736-140.864-118.176-254.64-259.696-254.64-141.552 0-256.992 113.776-259.712 254.64 2.736 140.928 118.16 254.656 259.712 254.656zM759.008 828.624c2.432-15.152 11.504-30.032 24.528-40.464 50.72-45.52 89.968-98.752 116.912-158.448h89.856c-1.232 3.424-2.512 6.832-3.808 10.224h3.808c-31.664 87.792-85.376 167.088-157.056 230.352-23.952 19.232-57.616 17.76-69.6-3.008-4.304-7.472-5.984-16.336-5.008-25.744-0.432-4.144-0.352-8.48 0.368-12.912zM900.192 266.272c-26.928-59.488-66-112.464-116.304-157.632-13.376-10.72-22.432-25.568-24.88-40.736-0.736-4.448-0.816-8.768-0.352-12.912-0.992-9.44 0.704-18.304 5.008-25.808 6.288-10.864 17.968-17.088 32.064-17.088 12.816 0 26.112 5.056 37.808 14.48 71.248 62.832 124.896 141.904 156.576 229.472h-3.808c1.296 3.392 2.576 6.8 3.808 10.224h-89.92zM1016.224 540.72h-84.24c0.672-3.408 1.312-6.816 1.904-10.224h-1.904c5.36-27.088 8.144-54.672 8.432-82.256-0.304-27.76-3.136-55.504-8.512-82.768h1.872c-0.592-3.424-1.216-6.832-1.872-10.24h84.224c5.008 30.928 7.344 61.968 7.056 93.008 0.288 30.88-2.016 61.76-6.96 92.48zM240.464 108.336c-50.608 45.44-89.76 98.432-116.688 157.92h-89.92c31.664-87.568 85.328-166.64 156.896-229.712 11.376-9.168 24.704-14.224 37.472-14.224 14.112 0 25.792 6.24 32.080 17.072 4.736 8.24 6.352 18.064 4.672 28.496-2.448 15.184-11.488 30.032-24.512 40.448z" />
<glyph unicode="&#xe608;" d="M512.56 36.032c-227.136 0-411.952 184.816-411.952 411.952 0 227.168 184.816 411.984 411.952 411.984 227.184 0 412-184.816 412-411.984 0-227.136-184.816-411.952-412-411.952zM512.56 793.216c-190.336 0-345.2-154.848-345.2-345.232 0-190.336 154.88-345.2 345.2-345.2 190.368 0 345.216 154.88 345.216 345.2 0 190.384-154.832 345.232-345.216 345.232zM774.128 58.4c-9.632 15.712-0.528 38.592 18.224 52.784 217.152 183.44 217.152 490.176 0 673.664-18.752 14.176-27.84 37.040-18.224 52.784 9.6 15.664 37.024 16.704 58.688 0.304 251.776-209.168 251.872-570.704 0-779.824-21.664-16.448-49.104-15.392-58.688 0.288zM249.904 58.4c9.6 15.712 0.512 38.592-18.256 52.784-217.136 183.44-217.104 490.176 0 673.664 18.768 14.176 27.84 37.040 18.256 52.784-9.648 15.664-37.024 16.704-58.768 0.304-251.712-209.168-251.792-570.704 0-779.824 21.744-16.448 49.136-15.392 58.768 0.288zM534.912 291.216c-1.008-10.72-10.512-18.432-21.264-18.368-1.296 0-1.984 0-3.296 0-10.704-0.064-20.256 7.664-21.296 18.368-13.632 144.288-27.2 288.544-40.896 432.848 8.304 21.2 39.712 21.056 58.784 22.448 4.032 0.032 6.064 0.032 10.144 0 19.040-1.392 50.512-1.248 58.768-22.448-13.664-144.304-27.232-288.56-40.944-432.848zM564.688 202.192c0-29.108-23.596-52.704-52.704-52.704s-52.704 23.596-52.704 52.704c0 29.108 23.596 52.704 52.704 52.704s52.704-23.596 52.704-52.704z" />
<glyph unicode="&#xe609;" d="M718.336 197.936c1.184-15.936 2.24-31.968 3.44-47.936 45.312 4.192 89.632 26.848 115.104 65.248 31.664 45.216 31.312 109.664-0.688 154.464-25.6 37.936-69.52 60.16-114.48 64.080-1.136-15.84-2.256-31.712-3.376-47.552 47.776-4.464 94.24-42.624 94.048-93.216 1.392-51.344-45.408-91.12-94.048-95.088zM561.376 680.064c27.344 25.12 33.664 67.824 21.76 101.824-18.064 35.968-62.512 48.064-80.784 84-15.84 28.096-8.24 61.296-2.944 91.152-30.24-43.104-58.304-88.080-79.712-136.336-16.544-35.664-27.136-78.928-6.64-115.344 25.76-54.144 105.312-64.192 148.32-25.296zM425.664 471.52c34.368 22.352 44.448 69.696 32.416 107.056-16.976 38.384-64.656 50.368-82.72 88.24-14.528 28-6.944 60.16-2.016 89.472-35.92-52.592-71.088-107.088-91.28-167.968-13.408-36.080-5.728-79.616 21.904-106.992 31.632-31.216 85.152-33.36 121.696-9.808zM708.912 485.296c1.056-16.272 2.224-32.464 3.424-48.72 45.040 4.336 89.184 26.208 115.232 63.904 34.032 46.256 34.096 113.856 0.336 160.272-26.080 38.016-70.368 60.096-115.648 64.336-1.136-16.24-2.24-32.384-3.2-48.576 47.872-4.448 94.208-42.048 95.248-92.592 2.848-52.88-45.36-94.56-95.392-98.624zM508.784 511.84c64.624 10.592 129.136 21.776 193.744 32.72-2.736 16.112-5.44 32.24-8.24 48.336-64.448-10.8-128.944-21.904-193.392-32.64 2.528-16.176 5.264-32.288 7.888-48.416zM885.584 350.592c0.864-16.4 2.416-32.816 5.504-49.024 20.128 6.128 41.152 12.432 56.928 27.12 57.104 50.88 60.464 148.224 10.336 204.992-17.296 20.48-42.608 31.808-68.528 36.528-1.616-16.048-3.040-32.080-4.368-48.128 78.688-18.896 78.688-152.4 0.128-171.488zM257.008 469.168c-2.656 16.048-5.344 32.080-8.096 48.144-27.28-4.544-54.512-9.136-81.76-13.696 2.704-16.112 5.36-32.224 8.064-48.4 27.296 4.448 54.56 9.088 81.792 13.952zM702.528 313.408c-175.68 30-351.504 59.664-527.248 89.44-2.704-16.128-5.504-32.224-8.144-48.288 175.712-29.904 351.36-59.664 527.152-89.44 2.736 16.128 5.504 32.224 8.24 48.288zM1000.72-17.6c-26.4-8.624-56.64-9.344-80.752 6.16-32.16 18-48.464 54.528-50.304 90.224h-38.144c-1.696-27.808-10.336-56.224-31.104-75.872-27.376-28.56-74.336-35.536-108.256-14.688-32.4 18.064-48.624 54.72-50.832 90.56h-16.24v0.032h-17.088c-2.176-35.84-18.352-72.496-50.768-90.592-33.888-20.88-80.848-13.968-108.256 14.56-20.832 19.664-29.488 48.064-31.168 75.84-6.432 0.032-12.928 0.064-19.392 0.096h-15.056c-2.304-36-18.72-72.688-51.312-90.656-34.048-20.688-80.992-13.472-108.192 15.248-20.528 19.632-29.008 47.776-30.656 75.408h-38.304c-2.176-35.44-18.688-71.472-50.656-89.152-24.208-15.376-54.4-14.464-80.8-5.68-4.784-11.312-9.584-22.592-14.432-33.872 60.272-25.712 133.872 1.44 164.384 58.976 20.96-36.688 57.904-65.088 100.64-69.024 50.464-6.336 101.728 21.84 125.792 66.128 21.36-35.504 57.776-62.688 99.712-66.32 50.336-6.064 101.248 22.288 125.104 66.464 23.936-44.224 74.88-72.528 125.28-66.4 42.72 3.712 79.824 31.936 100.976 68.496 30.224-57.664 103.68-85.216 164.096-59.776-4.8 11.248-9.536 22.56-14.272 33.84z" />
<glyph unicode="&#xe60a;" d="M668.064 831.36c66.64-4.288 130.944-42.928 162.048-102.592 33.744-61.792 25.824-142.88-18.784-197.312-34.352-43.728-88.048-69.856-143.072-74.272-1.392 17.504-2.48 34.928-3.52 52.336 47.072 4.224 93.088 29.376 116.864 71.056 24.992 41.824 22.432 97.808-6.208 137.184-24.912 36.384-67.36 57.456-110.656 61.536 1.088 17.408 2.192 34.768 3.328 52.064zM211.984 721.36c73.296-0.064 146.592 0 219.808 0 0.064-14.048 0-28.016-0.064-42-73.232 0.128-146.448 0.048-219.664 0-0.080 14.032-0.080 28.016-0.080 42zM456.432 628.544c67.36 16.4 134.64 32.992 201.968 49.408 3.392-13.616 6.736-27.248 10.032-40.928-67.408-16.608-134.832-33.056-202.24-49.472-3.36 13.664-6.544 27.344-9.76 40.992zM240.464 635.872c24.064 8.176 50.56-15.632 44.544-40.464-3.248-25.072-36.56-37.792-55.84-21.584-22.72 15.712-15.504 55.344 11.296 62.048zM355.12 636.064c24.208 7.6 49.92-16.4 43.92-41.152-3.968-26.256-40.096-37.936-58.608-18.768-20.16 17.232-11.040 53.936 14.688 59.92zM889.904 622.736c38.368-4.8 73.776-25.984 96.384-57.328 47.616-64.736 48.864-159.616 3.904-226.064-22.464-34.16-59.648-57.6-100.176-62.752-1.712 17.232-3.312 34.544-4.704 51.776 55.040 9.184 85.84 67.824 85.216 119.744 1.776 52.88-29.008 113.52-85.28 122.896 1.536 17.264 3.072 34.496 4.656 51.728zM1.136 517.008c50.752 12.192 101.312 25.216 152.192 36.976 3.056-13.616 6.272-27.2 9.456-40.864-50.576-12.336-101.168-24.704-151.744-37.088-3.376 13.632-6.704 27.312-9.904 40.976zM240.096 521.232c24.368 8.688 51.456-15.824 44.8-41.008-3.808-26.624-40.864-37.696-58.976-18.128-19.024 17.2-10.656 52.544 14.176 59.136zM355.12 521.488c24.384 7.92 50.368-16.784 43.712-41.648-4.064-25.904-39.888-37.008-58.208-18.432-20.352 17.12-11.488 54.208 14.496 60.080zM668.32 438.688c53.52-4.224 105.728-28.88 140.080-70.544 40.16-46.912 53.472-114.944 33.504-173.408-23.856-73.984-97.104-125.632-173.76-130.096-1.2 17.312-2.352 34.656-3.456 51.968 46.24 4.336 91.632 28.4 115.616 69.072 25.92 41.376 24.336 97.552-3.664 137.52-24.72 37.312-67.888 59.168-111.936 63.2 1.056 17.44 2.224 34.864 3.616 52.288zM239.648 406.544c24.512 9.136 52.16-15.744 45.248-41.088-4.272-26.304-40.528-37.136-58.848-18.080-18.976 16.976-11.104 52.416 13.6 59.168zM354.88 406.896c24.384 8.224 50.896-16.736 43.92-41.648-4.288-25.6-39.136-36.688-57.712-18.816-20.688 16.784-12.336 54.464 13.792 60.464zM1.008 340.48c3.248 13.728 6.64 27.408 10.016 41.040 50.576-12.32 101.008-24.96 151.552-36.976-2.944-13.712-6.064-27.456-9.312-41.088-50.896 12.016-101.504 24.784-152.256 37.024zM239.584 292.048c24.784 9.312 52.608-16.096 45.2-41.648-4.544-25.904-40.24-36.432-58.416-17.824-19.36 17.008-11.616 52.48 13.216 59.472zM354.352 292.336c25.024 8.512 51.776-17.024 44.32-42.368-4.752-25.104-39.2-35.728-57.52-18.064-20.56 16.784-12.528 53.888 13.2 60.432zM466.272 269.936c67.408-16.288 134.768-32.928 202.112-49.408-3.232-13.664-6.512-27.328-9.872-40.976-67.424 16.544-134.848 32.944-202.208 49.536 3.264 13.648 6.592 27.264 9.968 40.848zM211.984 179.472c73.248 0 146.512-0.048 219.808 0.096 0-14.016 0-27.904 0.064-41.888-73.232-0.256-146.512 0-219.728-0.192-0.144 14.032-0.144 28.016-0.144 41.984z" />
<glyph unicode="&#xe60b;" d="M195.232 593.376c-0.272 17.728 13.952 34.064 31.424 36.64 7.92 0.864 15.904 0.416 23.872 0.464 168.176-0.048 336.368 0.016 504.56-0.048 19.344 0.704 36.992-15.984 37.6-35.264 0.592-32.768 0-65.568 0.288-98.336 50.080 0.080 100.192-0.176 150.272 0.128 26.88-55.632 52.768-111.728 79.76-167.328-34.464-6.736-68.864-14.208-103.504-19.888-18.96 29.024-34.336 60.704-53.2 90.032-24.384-0.304-48.864-0.064-73.264-0.128-0.336-32.096 0.080-64.224-0.208-96.32 0.288-16.72-11.744-32.72-28.032-36.752-8.112-1.664-16.432-1.008-24.64-1.12-169.152 0.064-338.336-0.032-507.472 0.064-20.32-0.8-38.144 17.872-37.472 37.936-0.048 33.504-0.128 66.976 0.048 100.448-39.44 0.352-78.912 0.112-118.336 0.16-25.504 30.72-50.608 61.76-75.904 92.672 64.672 0.208 129.36 0 194.048 0.080 0.256 32.192-0.096 64.384 0.16 96.56zM224.752 593.152c-0.336-41.984 0.048-83.952-0.176-125.92-53.888-0.128-107.776 0.192-161.664-0.192 9.792-10.992 18.336-23.008 28.368-33.824 44.448 0.528 88.928 0.16 133.376 0.192-0.048-36.32-0.032-72.592-0.032-108.912 0-9.28-0.496-18.592 1.168-27.744 9.888-3.824 20.576-2.256 30.896-2.496 164.272-0.016 328.528 0.064 492.768-0.016 6.080-0.528 14.8 1.472 13.792 9.36 0.224 40.176 0.032 80.352 0.080 120.512 41.168 0.128 82.304 0.128 123.488 0.032 15.504-27.568 31.552-54.848 47.216-82.336 15.52 2.992 30.96 6.224 46.448 9.2-18.64 38.48-37.056 77.104-55.040 115.936-54.032 0.672-108.064 0.048-162.080 0.32-0.032 40.992-0.080 82 0.032 123.024 0.432 3.936-0.896 7.904-4.192 10.336-7.296 1.232-14.736 0.656-22.096 0.736-167.12-0.048-334.256 0.032-501.376-0.048-5.168 0.704-11.552-2.112-10.976-8.16zM275.888 573.568c25.808 6.032 53.744-16.208 52.080-42.992 1.248-22.864-19.152-43.328-41.744-43.792-22.88-1.584-44.416 17.792-45.648 40.592-2.16 21.376 14.176 42.64 35.312 46.192zM275.744 555.504c-18.32-5.696-24.16-32.16-8.96-44.336 13.36-13.424 39.232-5.696 42.96 12.896 6.208 19.28-15.248 38.752-34 31.44zM374.304 573.36c25.344 6.464 52.576-13.856 53.664-39.92 2.384-26.16-22.784-50.064-48.784-46.432-24.752 1.984-44.272 28.224-38.16 52.4 3.136 16.544 16.784 30.48 33.28 33.952zM377.168 555.984c-17.408-4.096-26.064-27.408-14.064-41.232 11.488-16.672 39.728-11.904 45.872 7.104 7.776 18.96-12.544 40.144-31.808 34.128zM580.512 573.232c26.416 7.248 55.552-15.168 54.128-42.784 1.28-29.008-31.392-51.984-58.32-41.2-23.296 7.232-35.728 35.648-26.24 57.856 5.152 12.992 16.848 22.976 30.432 26.128zM580.784 555.088c-17.6-6.96-22.032-32.96-6.736-44.56 14.512-13.824 41.136-2.96 42.896 16.688 3.376 19.2-18.448 35.664-36.16 27.872zM687.808 573.616c24.688 5.472 51.504-14.528 51.616-40.112 2.56-22.512-15.744-44.32-38.16-46.4-23.968-3.664-48.304 16.336-49.12 40.576-2.128 21.44 14.4 42.656 35.664 45.936zM687.808 555.712c-10.32-3.648-18.624-13.888-18.288-25.12-0.256-13.696 12.24-26.624 26.048-26.080 15.248-1.104 28.848 14.24 26.32 29.264-1.104 16.016-19.056 26.976-34.080 21.936zM472.576 570.784c17.888 7.728 40.704 2.592 52.496-13.232 16.144-19.616 10-53.008-12.72-64.928-21.408-13.36-52.416-2.96-62 20.208-10.304 21.232 0.736 48.784 22.224 57.952zM481.952 555.536c-17.664-5.28-23.984-30.304-10.448-43.072 12.416-14.128 38.336-8.608 43.712 9.52 8.528 19.328-13.808 41.184-33.264 33.552zM308.672 483.792c25.872 11.36 58.96-8.48 60.016-36.944 3.184-24.608-18.64-48.528-43.472-47.296-22.64-1.232-43.328 18.64-43.872 41.136-1.488 18.336 10.336 36.416 27.328 43.104zM299.184 440.672c0.192-13.984 13.296-23.040 26.080-24.64 8.896 1.984 18.304 5.472 22.736 14.080 8.992 14.224-0.224 34.976-16.496 38.448-16.56 4.976-35.056-10.672-32.32-27.888zM409.936 484.352c26.544 10.624 59.76-11.184 58.256-40.32 2.224-24.064-20.4-46.16-44.24-44.48-22.496-0.8-42.528 19.2-43.12 41.376-1.248 18.832 11.376 37.296 29.104 43.424zM412.8 466.448c-11.28-5.28-17.328-19.408-13.152-31.216 3.424-11.088 14.736-19.264 26.544-17.84 16.8-0.768 29.936 18.976 23.296 34.24-4.384 14.64-23.328 22.416-36.688 14.816zM514.464 483.696c25.040 11.072 56.912-6.72 60.16-33.952 4.928-25.44-17.376-51.552-43.296-50.192-22.72-1.312-43.344 18.688-43.92 41.168-1.36 18.224 10.16 36.24 27.056 42.976zM505.088 440.8c0.4-13.888 13.328-23.024 26.128-24.784 8.192 1.968 17.232 4.656 21.808 12.416 9.6 13.12 2.912 33.888-12.4 39.168-16.96 7.648-38.224-8.416-35.536-26.8zM615.792 484.048c20.672 8.208 46.448-1.776 55.488-22.208 10.384-19.744 1.536-46.32-17.856-56.816-20.304-12.064-49.472-4.208-60.352 16.96-13.104 22.16-1.408 53.488 22.72 62.064zM619.136 466.048c-14.656-7.136-18.64-28.32-7.36-40.144 12.992-16.048 42.528-8.624 45.728 12.048 5.424 20.672-20.224 39.632-38.368 28.096zM270.080 393.92c17.696 5.44 39.040 0.544 49.84-15.248 15.984-20.048 8.752-53.328-14.352-64.592-21.68-12.896-52.672-1.712-61.504 21.76-9.968 22.224 2.752 50.8 26.016 58.080zM280.704 378.544c-21.536-2.448-30.528-32.944-12.944-46.048 13.744-12.8 38.016-4.528 42.288 13.328 5.84 17.344-11.696 36.16-29.344 32.72zM371.056 394.464c19.296 5.248 42.224-2.064 51.584-20.512 12.032-19.824 4.080-47.664-15.84-59.040-20.096-12.944-49.344-4.928-60.64 15.936-13.808 22.976-1.152 56.304 24.896 63.616zM374.048 376.704c-17.424-6.4-21.92-32.24-7.056-43.712 14.832-15.312 43.968-2.64 43.52 18.384 1.936 18.384-19.888 33.632-36.464 25.328zM476.16 394.032c18.336 5.504 40.416-0.048 50.928-16.864 14.592-20.272 7.12-52.096-15.456-63.104-21.744-12.928-52.816-1.584-61.6 21.968-9.936 22.256 3.232 50.384 26.128 58zM486.672 378.8c-8.672-1.744-16.352-7.648-20.064-15.696-6.384-13.12 1.248-30.288 14.864-35.008 15.808-7.2 34.832 6.352 35.936 22.992 0.576 16.016-14.768 30.24-30.736 27.712zM577.44 394.288c15.776 4.048 34.128 1.28 45.408-11.312 19.056-18.672 14.944-54.032-8.304-67.44-21.456-14.816-53.776-4.48-63.584 19.392-10.944 22.608 2.528 52.192 26.48 59.36zM586.96 378.64c-20.768-2.56-29.84-31.28-13.968-45.008 13.872-15.008 41.744-5.536 43.984 14.56 3.76 17.072-13.168 33.664-30.016 30.448zM681.76 394.016c15.712 4.336 34.432 1.968 45.696-10.784 20.032-18.768 15.184-56.304-9.6-68.72-20.928-13.056-51.104-3.312-61.168 18.928-11.872 22.448 0.912 53.008 25.072 60.576zM692.576 378.768c-20.768-2.416-30.832-30.96-14.752-45.024 14.576-16 44.928-4.336 44.288 17.424 2.096 16.064-14.016 29.968-29.536 27.6z" />
<glyph unicode="&#xe60c;" d="M1020.496 465.264l-61.904 131.648c-5.728 12.256-18.032 20.064-31.568 20.064h-88.992c-19.28 0-34.928-15.616-34.928-34.912v-73.664h-13.888v50.128c0 19.296-15.632 34.912-34.912 34.912h-78.656v97.168c0 19.28-15.648 34.912-34.928 34.912h-143.28v41.648h69.568c19.28 0 34.912 15.632 34.912 34.912s-15.632 34.928-34.912 34.928h-208.88c-19.296 0-34.928-15.664-34.928-34.928 0-19.296 15.632-34.912 34.928-34.912h69.52v-41.648h-177.728c-19.264 0-34.928-15.632-34.928-34.912v-62.688h-68.432c-19.28 0-34.912-15.664-34.912-34.928v-131.616h-41.616v156.8c0 19.28-15.632 34.912-34.912 34.912-19.296 0-34.944-15.632-34.944-34.912v-383.44c0-19.312 15.648-34.976 34.944-34.976 19.28 0 34.912 15.664 34.912 34.976v156.816h41.632v-155.040c0-19.296 15.632-34.96 34.912-34.96h114.96l117.040-130.944c6.608-7.408 16.096-11.648 26.048-11.648h349.712c19.28 0 34.912 15.648 34.912 34.912v107.664h29.376v-76.208c0-19.28 15.648-34.928 34.912-34.928h69.632c12.352 0 23.76 6.528 30.048 17.12l65.776 111.152c3.184 5.376 4.848 11.488 4.848 17.792v213.936c-0.032 5.12-1.152 10.224-3.344 14.864zM953.984 246.048l-50.752-85.776h-14.8v76.256c0 19.264-15.648 34.912-34.928 34.912h-99.184c-19.28 0-34.928-15.648-34.928-34.912v-107.696h-299.168l-117.024 130.944c-6.64 7.424-16.112 11.664-26.032 11.664h-95.664v286.64h68.432c19.296 0 34.928 15.664 34.928 34.912v62.704h321.008v-97.168c0-19.28 15.616-34.912 34.896-34.912h78.656v-50.16c0-19.296 15.648-34.88 34.928-34.88h83.712c19.28 0 34.912 15.584 34.912 34.88v73.68h31.904l49.12-104.528v-196.56z" />
<glyph unicode="&#xe60d;" d="M286.016 898.864c98.384 49.552 213.28 64.816 321.36 44.128 109.76-20.528 211.616-79.376 285.072-163.344 78.72-88.704 124.528-205.696 127.104-324.256 3.504-113.808-32.512-228.4-100.832-319.44-69.632-94.128-172.656-162.656-286.4-190.448-9.68 29.776-19.296 59.552-28.848 89.312 110.752 25.664 209.76 97.936 266.48 196.624 59.6 100.752 72.896 227.088 36.464 338.224-33.344 104.736-110.064 194.736-208.304 244.112-95.312 48.832-209.984 58.064-311.872 24.8-110.224-34.736-203.648-118.4-251.184-223.744-51.216-110.448-50.176-243.488 2.976-353.104 31.44-64.656 78.848-122.592 139.216-162.224 22.24 28.112 45.952 54.912 69.488 81.84 5.312-63.888 12.048-127.696 17.392-191.6 3.2-14.496-7.168-30.304-22.832-29.232-64.048-5.584-128.016-11.296-191.984-16.48 22.768 27.328 46.336 53.952 69.088 81.376-92.688 66.032-162.384 163.584-193.904 272.96-31.744 108.928-26.176 228.448 16.192 333.792 45.584 114.88 134.656 211.664 245.328 266.704zM167.648 242.496c113.952 197.696 227.056 395.936 341.024 593.632 114.032-197.856 227.088-396.24 341.28-593.952-227.472 0.928-454.864 0.384-682.304 0.32zM505.072 703.904c-73.584-133.024-151.504-263.712-225.856-396.384 151.824 0.256 303.664 0.176 455.472 0.080-77.552 131.52-150.128 266.096-229.616 396.304zM495.92 628.208c17.568 8.304 39.632-8.016 37.568-27.264-0.448-58.784-1.456-117.536-3.040-176.24 2.736-18.928-21.072-33.52-36.64-22.608-13.664 6.8-12.304 24.896-13.12 37.792-0.624 53.808-2.32 107.696-2.224 161.52-0.848 11.6 7.456 21.984 17.456 26.8zM496.16 376c20.448 9.84 44.288-13.888 36.416-34.72-5.504-20.944-37.104-26.128-48.784-7.936-11.6 13.968-4.048 36.384 12.368 42.656zM366.112-37.68l-45.408-3.68-3.392 40.608 45.424 3.712z" />
<glyph unicode="&#xe60e;" d="M998.816 572.848l-80.096 51.632-309.2-109.936-57.84 34.224h-146.272v19.072h62.832v51.936h-177.616v-51.936h62.848v-19.072h-163.392l-107.664 62.064-82.064-85.664 174.432-225.936 1.664 1.36v-29.072h377.328l363.264 292.112 53.616-34.528 28.16 43.744zM68.8 521.536l23.008 23.904 84.64-48.752v-114.464l-107.648 139.312zM535.472 323.616h-307.088v173.216h309.056l66.624-39.376 175.504 62.256-244.096-196.096zM1023.648 421.264c0-21.504-17.408-39.040-38.912-39.040s-38.912 17.408-38.912 39.040c0 21.504 38.912 89.792 38.912 89.792s38.912-68.288 38.912-89.792v0z" />
<glyph unicode="&#xe60f;" d="M512.016 236.848c-131.296 0-238.080 108.448-238.080 241.664 0 133.28 106.784 241.664 238.080 241.664 131.264 0 238.080-108.384 238.080-241.664 0-133.216-106.816-241.664-238.080-241.664zM512.016 661.584c-98.992 0-179.504-82.096-179.504-183.088 0-100.912 80.512-183.056 179.504-183.056 98.96 0 179.488 82.16 179.488 183.056 0 100.992-80.528 183.088-179.488 183.088zM601.968 668.224h-179.952c-33.728 0-61.184 27.472-61.184 61.216v138.336c0 33.76 27.456 61.232 61.184 61.232h179.952c33.776 0 61.248-27.472 61.248-61.232v-138.336c0-33.744-27.472-61.216-61.248-61.216zM422.016 876.528c-4.832 0-8.736-3.92-8.736-8.752v-138.336c0-4.832 3.904-8.72 8.736-8.72h179.952c4.848 0 8.752 3.904 8.752 8.72v138.336c0 4.832-3.904 8.752-8.752 8.752h-179.952zM131.487 821.355l37.096 37.054 179.581-179.784-37.096-37.054-179.581 179.784zM0.496 504.24h254.144v-52.448h-254.144v52.448zM169.17 97.984l-37.048 37.079 179.781 179.629 37.048-37.079-179.781-179.629zM486.224 221.152h52.496v-254.16h-52.496v254.16zM892.556 135.695l-37.124-37.093-179.629 179.781 37.124 37.093 179.629-179.781zM769.344 505.216h254.16v-52.464h-254.16v52.464zM854.769 859.075l37.092-37.103-179.731-179.68-37.092 37.103 179.731 179.68z" />
<glyph unicode="&#xe610;" d="M375.040 795.92c-216.336-44.256-374.24-183.168-374.24-347.936 0-164.752 157.92-303.68 374.080-348.112v696.048h0.16zM990.912 480.272h-278.896c-17.808 0-32.304-14.496-32.304-32.288s14.48-32.272 32.304-32.272h278.896c17.808 0 32.304 14.464 32.304 32.272-0.016 17.776-14.496 32.288-32.304 32.288v0zM712.016 675.968h278.896c17.808 0 32.304 14.464 32.304 32.288s-14.48 32.304-32.304 32.304h-278.896c-17.808 0-32.304-14.464-32.304-32.304 0-17.824 14.496-32.288 32.304-32.288v0zM523.136 718.736v92.352c-39.952 0-78.56-3.312-115.808-9.328v-707.712c37.264-5.808 75.872-9.136 115.808-9.136v92.192c53.92 8.64 96.512 126.464 96.512 270.896 0.016 144.272-42.592 262.096-96.512 270.736v0zM990.912 220.032h-278.896c-17.808 0-32.304-14.496-32.304-32.288 0-17.824 14.48-32.304 32.304-32.304h278.896c17.808 0 32.304 14.464 32.304 32.304-0.016 17.792-14.496 32.288-32.304 32.288v0z" />
<glyph unicode="&#xe611;" d="M997.6 572.736l-80.032 51.6-308.944-109.84-57.776 34.192h-146.144v19.056h62.784v51.888h-177.472v-51.888h62.8v-19.056h-163.248l-107.568 62-82-85.584 174.288-225.744 1.664 1.36v-29.040h377.008l362.928 291.84 53.568-34.512 28.144 43.728zM68.384 521.472l23.008 23.888 84.576-48.704v-114.368l-107.584 139.184zM534.656 323.712h-306.816v173.072h308.784l66.56-39.344 175.344 62.192-243.872-195.92zM1022.4 421.296c0-21.488-17.408-39.024-38.896-39.024-21.472 0-38.88 17.392-38.88 39.024 0 21.488 38.88 89.712 38.88 89.712s38.896-68.224 38.896-89.712v0z" />
<glyph unicode="&#xe612;" d="M156.256 930.544c49.92 11.648 105.6 5.52 148.336-24.128 53.168-35.632 82.448-97.488 94.24-158.752 13.376-75.488 7.872-156.784-27.76-225.696-23.152-45.52-63.68-83.040-113.152-97.456-53.76-14.56-114.96-8.016-160.56 25.392-52.8 37.136-80.704 100.144-90.992 162.16-11.584 75.936-4.016 157.312 33.728 225.232 24.336 44.752 66.176 80.912 116.16 93.248zM170.256 826.928c-45.008-19.44-60.816-72-65.712-116.864-4.928-54.368-1.6-115.184 33.28-159.952 30.768-40.16 98.64-40.768 130.16-1.296 31.248 38.032 37.152 90.16 36.016 137.728-1.904 42.192-9.68 87.6-38.672 120.192-23.168 26.32-63.168 32.448-95.072 20.192zM563.248 935.76c26.080 0.304 52.176 0.384 78.304 0.16-52.96-172.976-106.304-345.872-159.296-518.832-25.872-0.16-51.744-0.16-77.616-0.096 52.864 172.976 106.048 345.792 158.608 518.768zM657.648 924.576c61.12-0.080 122.144 0.448 183.264-0.144 51.648-0.528 103.168-25.040 133.344-67.552 37.168-50.816 48.528-115.696 48.368-177.424-0.144-60.736-9.888-124.192-43.76-175.856-28.24-43.952-77.776-73.904-130.4-75.024-63.536-1.664-127.2-0.384-190.816-0.608 0 165.552 0 331.104 0 496.608zM758.816 821.552c0-96.88-0.064-193.776 0-290.656 40.336 2.8 87.056-9.744 121.488 17.552 34.656 30.176 41.392 79.648 41.136 123.056-0.832 43.776-4.624 93.488-37.424 126.16-33.68 31.616-83.2 22.672-125.2 23.888zM186.128 325.68c59.904 16.656 130.768 2.88 172.608-45.28 60.048-69.728 63.296-181.68 10.656-256.48-58.848-82.224-195.824-85.472-260.176-8.336-46 55.296-53.392 135.072-31.92 202.016 16.032 50.832 56.784 94.112 108.832 108.080zM215.104 252.784c-32.064-7.024-52.192-37.952-58-68.512-7.648-39.424-6.224-84.256 17.68-118.16 27.76-39.232 94.56-39.296 122.368 0 19.136 26.192 23.152 60.304 21.392 91.824-2.096 28.976-9.968 60.048-32.592 79.952-19.040 16.944-46.72 20.112-70.848 14.896zM442.080 324.192c82.352 0.24 164.816 0.080 247.168 0.080 0.16-25.808 0.16-51.6 0-77.456-53.312-0.16-106.704 0.080-160.096-0.080-0.16-21.712-0.16-43.424 0-65.12 46.24-0.144 92.56 0.080 138.848-0.144 0.096-24.064 0.096-48.112 0-72.16-46.288-0.144-92.608-0.080-138.848-0.080-0.096-47.104-0.096-94.176-0.096-141.28-29.056-0.144-58.016-0.144-87.056 0 0.16 118.736 0 237.504 0.080 356.24zM717.68 324.272c82.448 0.080 164.832 0.080 247.168 0 0.080-25.808 0.080-51.664 0-77.456-53.392-0.080-106.816 0.080-160.208-0.080 0-21.712 0-43.488 0-65.184 46.304 0.064 92.576 0 138.896 0 0.16-24.144 0.16-48.192 0-72.32-46.32 0-92.592 0.080-138.896-0.064-0.144-47.040 0.096-94.176-0.048-141.216-29.072-0.080-58.032-0.144-87.008 0 0.096 118.736-0.048 237.552 0.096 356.32z" />
<glyph unicode="&#xe613;" d="M261.392 742.592c-0.912 12 12.304 18.304 22.608 17.504 117.792 0.128 235.6 0.32 353.392-0.064 10.24 0.8 22.592-6.352 21.264-18-0.464-15.824 6.608-43.664-16.544-45.84-50.192-1.888-100.576-0.24-150.88-0.784 0-5.344 0.048-15.888 0.048-21.152 54.24-0.368 108.512 0.608 162.752-0.432 28.704-22.672 50.784-53.28 79.264-76.144 41.76-1.44 83.6 0.784 125.376-1.008-0.432-20.88-0.256-41.712-0.176-62.576 4.048 0 12.176-0.064 16.24-0.064-0.048 20.784-0.048 41.648-0.128 62.448 49.888 0.128 99.776 0 149.744 0.064 0-134.544 0.128-269.072-0.128-403.584-50.496-0.192-101.008 0.464-151.504-0.368-0.976 16.256-0.912 32.56-0.608 48.848-12.608-1.632-28.8 5.008-38.688-5.44-33.456-33.472-67.28-66.624-100.624-100.192-147.744-0.064-295.472 0.064-443.296-0.064-32.496 32.064-64.336 64.784-97.296 96.256-32.864 3.68-66.432 0.496-99.632 1.536 0 46.128 0.064 92.192-0.048 138.336-9.216-0.064-18.368-0.064-27.6 0-0.64-50.432 1.344-100.944-0.896-151.312-3.824-21.664-30.32-14.064-45.904-14.976-14.848-1.664-19.584 15.376-18.368 26.912-0.032 113.312 0.080 226.544-0.032 339.856-0.064 9.376 0.48 21.52 9.872 26.672 13.696 3.040 28.064 2.24 41.952 1.024 12.128-2.72 13.696-17.216 13.392-27.472 0.064-46.192 0-92.368-0.064-138.64 9.28 0.064 18.512 0.064 27.696 0.064-0.048 46.144 0.192 92.224-0.048 138.352 37.408 0.704 74.864 0.176 112.288 0.224 19.952 33.168 38.368 67.248 58.688 100.112 54.448 3.68 110.144 0.416 165.136 1.568 0.048 5.216 0.176 15.648 0.224 20.912-51.248 1.52-102.8-1.744-154.032 1.584-20.496 5.232-12.352 30.56-13.44 45.84zM393.856 596.544c-0.064-97.248 0.064-194.48-0.064-291.728-20.48 0-41.024 0.192-61.6-0.464 42.208-41.776 84.336-83.6 126.528-125.376 42.128 42.064 84.672 83.712 126.768 125.84-20.8 0.192-41.664-0.72-62.448 0.848 0.784 96.976 0.192 193.888 0.352 290.832-43.136 0.112-86.304 0.112-129.536 0.048z" />
<glyph unicode="&#xe614;" d="M422.368 696.32c43.2 19.152 91.216 13.536 137.056 14.112 40.496-0.64 82.4 4.112 121.28-9.936 55.408-17.632 100.4-55.84 144.528-92.016 41.12-33.28 100.592-21.568 141.968-53.888 35.408-27.008 51.024-72.496 53.472-115.632 2.368-44.080-3.088-88.8-16.224-130.896-8.976-31.152-65.472-24.256-63.568 9.872 6.496 54.688 25.536 113.808-0.848 166.32-19.088 33.84-63.312 31.488-96.336 38.96-45.344 7.008-75.184 44.848-109.712 71.024-31.088 23.024-65.664 45.92-105.568 48.144-29.472 1.536-58.976-0.064-88.432 0.496-30.992-0.256-63.488 3.088-92.576-9.872-59.056-25.088-105.872-70.512-151.408-114.4-22.080-21.888-55.344-18.032-83.664-21.184-32.336-3.104-68.624-5.44-93.44-29.088-19.712-19.488-37.44-42.128-47.44-68.256-6.496-14.848-4.048-38.128 14.24-42.816 27.456-5.936 56.608 6.976 83.040-5.408-3.28-20.32-4.304-43.184 9.344-60.32 20.448-31.184 69.072-36.064 94.96-9.024 16.128 13.776 18.512 35.536 21.872 55.088 4.256 29.744 51.504 26.032 64.656 5.936 8.032-58.336-29.488-119.024-84.896-138.848-51.296-19.84-113.664-1.936-147.296 41.216-9.376 12.4-12.848 28.944-24.304 39.632-22.592 8.624-49.904 2.336-70.16 18.064-33.952 22.656-34.128 69.536-25.152 105.12 18.224 82.24 93.712 147.632 177.792 153.376 26.816 2.912 57.104 1.088 79.008 19.792 50.784 40.432 95.312 91.536 157.808 114.432zM770.624 372.688c47.12 21.712 109.216-0.256 130.032-48.4 24.064-47.968-0.752-111.936-50.72-131.408-42.976-19.088-94.688-0.784-120.656 37.12-11.84 0.128-23.68 0.192-35.504 0.192-7.776 14.56-15.568 29.056-23.344 43.568-15.184-13.216-30.064-26.88-43.568-41.744-4.336-0.464-12.88-1.28-17.088-1.744-11.808 15.472-19.312 36.816-38.944 44.064-2.496-14.624-4.784-29.312-7.152-44-10.16-0.064-20.16-0.128-30.256-0.192-8.128 14.192-16.208 28.368-24.304 42.624-3.84-14.848-7.456-29.776-11.104-44.656-22.032 1.632-27.408 26.224-38.384 41.184-5.072-9.84-10-19.664-15.056-29.536-15.808 9.152-34.992 16.88-42.96 34.56-5.632 11.712 2.032 24.56 12.144 30.656 24.336 15.408 53.968 19.6 82.32 19.472 77.824-0.224 155.696-0.16 233.584-0.064 11.152 17.744 21.024 38.736 40.96 48.304zM847.472 297.088c-11.008-10.368-4.784-30.784 9.744-34.064 15.936-5.568 32.688 13.632 24.528 28.624-5.344 13.408-25.152 16.72-34.272 5.44z" />
<glyph unicode="&#xe615;" d="M538.032 786.032c34.752-0.144 72-9.2 96.272-35.68 45.072-51.088 27.872-146.864-40.576-168.432-0.608-136.016 0.32-272.112-0.48-408.096 1.168-21.872-15.488-44.96-38.912-43.408-22.96-1.12-38.24 22.128-37.392 43.152-0.688 135.344 0.064 270.624-0.336 405.904-31.824 5.6-57.664 29.712-70.416 58.752-11.872 31.632-2.752 66.32 11.008 95.776 18-26.192 35.712-52.544 53.552-78.944 18.4 0.32 36.864 0.32 55.232 0.64 6.96 20.080 13.856 40.144 20.864 60.208-15.84 23.616-32.88 46.432-48.816 70.128zM384.992 592.448c13.344-8.416 26.784-16.72 40.032-25.408-34.72-54.688-69.728-109.136-104.384-163.872-80.352 0.128-160.64-0.352-240.976 0.16-15.888-14.512-29.84-33.040-31.456-55.248-1.872-30.848 11.44-59.888 25.6-86.416 15.584 0 31.136-0.096 46.688 0.016 15.408 47.936 60.544 85.648 111.808 85.888 53.456 2.832 102.992-35.376 118.496-85.824 43.296-0.272 86.528-0.064 129.728-0.176 0-15.664 0-31.328 0.096-47.040-42.032 0-84.016 0-126.032-0.064-5.92-33.248-23.088-65.152-51.856-83.984-44.080-31.088-109.024-26.304-147.888 11.152-21.216 18.688-32.464 45.616-37.888 72.832-22.48-0.112-45.088 0.128-67.648 0.208-25.792 34.928-45.936 75.904-48.256 119.84-3.216 46.64 23.712 93.472 64.704 115.264 76.176 2.016 152.592 0.064 228.8 0.928 30.096 47.264 60.368 94.48 90.432 141.744zM208.432 294.832c-49.6-18.048-59.68-92.064-16.512-122.512 39.216-33.616 106.576-7.6 114.16 43.056 12.608 52.992-48.176 103.104-97.648 79.456zM690.784 564.464c11.936 10.304 24 20.464 35.872 30.832 31.296-36.4 62.928-72.608 94.048-109.248 4.736-5.056 9.264-11.504 16.72-12.336 48.272-9.824 96.688-19.104 145.312-26.448 29.712-5.904 37.84-41.632 40.464-67.344-7.088-55.392-19.168-110.208-27.952-165.408-26.448 0-52.96 0-79.408-0.064-5.92-32.224-21.968-63.328-49.376-82.256-42.032-31.184-104.624-29.408-144.624 4.352-24.336 19.008-38.16 48-43.616 77.84-16.32 0.112-32.592 0.176-48.88 0.176 0 15.664 0 31.328 0 46.992 17.536-0.064 34.976 0.112 52.448 0.112 16.16 52.272 68.72 91.088 124.032 85.6 49.296-2.528 91.472-39.472 106.336-85.6 14.416-0.016 28.8-0.016 43.216-0.112 6.224 35.52 12.624 70.928 18.896 106.448 2.912 11.28-1.168 22.384-3.664 33.344-55.376 8.192-110.288 19.632-165.248 30.32-38.32 44.176-76.56 88.432-114.576 132.8zM768.224 294.272c-24.448-10.496-41.712-35.616-42.688-62.144-3.056-40.016 33.312-77.104 73.312-74.912 42.912-0.176 78.304 44.272 68.224 85.968-7.664 43.088-59.264 70.384-98.848 51.088z" />
<glyph unicode="&#xe616;" d="M1019.552 49.952c-108.72 35.008-183.984-4.448-200.416-14.48-105.072-48.512-180.656-3.2-183.568-1.408l-4.464 2.448c-131.008 60.416-226.16 6.576-241.584-3.104-87.28-47.232-162.832-2.336-165.792-0.544l-1.84 1.072c-89.232 49.2-170.224 35.328-217.424 18.672v-80.144c15.728 8.72 92.448 45.824 181.2-2.704 8.464-5.056 56.032-31.664 121.472-31.664 35.536 0 76.336 7.856 118.96 31.28l3.12 1.904c0.672 0.432 67.632 45.104 169.28-0.928 18.144-10.56 120.56-63.568 254.016-0.672l4.864 2.784c2.64 1.696 64.352 40.608 162.192-1.072v78.56zM669.392 838.112v61.424h-108.256v9.2c0 27.136-22.032 49.152-49.152 49.152-27.136 0-49.136-22-49.136-49.152v-462.272c-51.168-19.728-87.552-69.28-87.552-127.424 0-75.488 61.2-136.688 136.688-136.688 75.456 0 136.672 61.2 136.672 136.688 0 58.144-36.368 107.68-87.536 127.424v90.656h108.256v61.44h-108.256v89.056h108.256v61.424h-108.256v89.072h108.272zM375.024 204.56c-80.976-35.28-148.48 4.752-151.312 6.432l-1.84 1.104c-89.232 49.184-170.224 35.312-217.424 18.656v-80.192c15.728 8.768 92.448 45.856 181.2-2.672 8.464-5.072 56.032-31.648 121.472-31.648 35.536 0 76.336 7.84 118.96 31.232l3.12 1.936c0.144 0.096 3.856 2.48 10.416 5.568-25.232 11.392-47.328 28.416-64.592 49.584zM583.552 154.608c4.896-1.856 9.856-3.808 14.944-6.096 18.144-10.576 120.56-63.568 254.016-0.656l4.864 2.736c2.64 1.68 64.352 40.64 162.192-1.056v78.56c-108.72 35.008-183.984-4.432-200.416-14.464-80.016-36.992-142.848-19.504-169.584-8.272-17.568-21.776-40.16-39.264-66.016-50.752zM344.864 372.688c-66.96-15.648-118.688 14.96-121.152 16.464l-1.84 1.088c-89.232 49.168-170.224 35.312-217.424 18.624v-80.144c15.728 8.736 92.448 45.84 181.2-2.704 8.464-5.056 56.032-31.648 121.472-31.648 9.456 0 19.312 0.592 29.44 1.872-0.736 6.464-1.168 13.024-1.168 19.696 0 19.92 3.44 38.928 9.472 56.752zM687.696 298.128c43.872-5.728 100.688-2.352 164.8 27.856l4.864 2.752c2.64 1.712 64.352 40.624 162.192-1.056v78.576c-108.72 35.008-183.984-4.432-200.416-14.48-58.48-27.024-107.824-24.944-140.592-17.472 6.4-18.304 10.064-37.856 10.064-58.336-0.016-6.016-0.32-11.952-0.912-17.84z" />
<glyph unicode="&#xe617;" d="M512 729.68c-155.328 0-281.696-126.352-281.696-281.696 0-155.296 126.368-281.664 281.696-281.664s281.664 126.368 281.664 281.664c0 155.344-126.352 281.696-281.664 281.696zM404.512 692.944c32.928 14.512 69.248 22.704 107.488 22.704 38.272 0 74.64-8.224 107.584-22.752 1.632-7.52 2.768-15.232 2.768-23.248 0-60.912-49.376-110.32-110.304-110.32-60.912 0-110.304 49.408-110.304 110.32 0 8.016 1.136 15.744 2.768 23.296zM246.064 418.464c-1.072 9.696-1.712 19.536-1.712 29.52 0 67.856 25.584 129.712 67.344 176.944 6.688-0.864 13.376-2.128 20.032-4.288 57.968-18.816 89.648-81.024 70.816-138.976-18.832-57.92-81.008-89.632-138.992-70.8-6.16 2.032-11.92 4.672-17.488 7.6zM466.96 199.52c-3.424-4.752-7.184-9.088-11.2-13.088-75.184 16.144-138.592 63.984-175.824 128.768 2.496 4.784 5.312 9.472 8.576 13.952 35.808 49.28 104.768 60.224 154.032 24.384 49.296-35.792 60.24-104.768 24.416-154.016zM428.112 447.984c0 46.336 37.552 83.888 83.872 83.888s83.856-37.568 83.856-83.888c0-46.288-37.536-83.856-83.856-83.856s-83.872 37.568-83.872 83.856zM563.072 185.376c-3.808 3.872-7.408 8.064-10.704 12.592-35.76 49.264-24.832 118.256 24.432 154.032 49.248 35.808 118.256 24.928 154.032-24.384 4.048-5.552 7.312-11.408 10.176-17.392-38.464-63.696-102.48-110.192-177.936-124.848zM779.632 447.984c0-10.56-0.784-20.928-1.968-31.168-5.984-3.28-12.224-6.224-18.944-8.4-57.936-18.832-120.16 12.88-139.008 70.8-18.816 57.92 12.912 120.144 70.848 138.976 7.856 2.56 15.776 3.856 23.664 4.608 40.64-46.976 65.408-107.984 65.408-174.816zM512 509.344c-33.824 0-61.36-27.52-61.36-61.36 0-33.824 27.536-61.328 61.36-61.328s61.328 27.504 61.328 61.328c-0.016 33.84-27.52 61.36-61.328 61.36zM512 400.704c-26.096 0-47.328 21.232-47.328 47.28 0 26.096 21.232 47.312 47.328 47.312 26.064 0 47.296-21.216 47.296-47.312-0.016-26.048-21.232-47.28-47.296-47.28zM1023.088 415.664v64.736h-18.432c-0.448 7.136-1.008 14.256-1.776 21.328l18.064 3.184-11.248 63.744-18.080-3.2c-1.696 6.96-3.584 13.84-5.568 20.672l17.264 6.288-22.128 60.816-17.328-6.32c-2.896 6.544-5.888 13.008-9.040 19.392l15.968 9.216-32.368 56.064-16.016-9.248c-3.968 5.92-8.096 11.712-12.32 17.456l14.24 11.952-41.6 49.584-14.336-12c-4.928 5.152-9.968 10.192-15.104 15.12l12 14.304-49.568 41.616-11.936-14.24c-5.744 4.224-11.552 8.352-17.472 12.32l9.248 16.032-56.064 32.352-9.216-15.984c-6.384 3.168-12.88 6.16-19.408 9.040l6.32 17.328-60.816 22.144-6.288-17.328c-6.832 2-13.696 3.872-20.64 5.568l3.184 18.096-63.776 11.232-3.168-18.080c-7.056 0.768-14.192 1.328-21.328 1.792v18.448h-64.72v-18.448c-7.152-0.464-14.288-1.024-21.344-1.792l-3.184 18.080-63.728-11.232 3.216-18.096c-6.96-1.696-13.84-3.584-20.672-5.568l-6.32 17.296-60.8-22.128 6.304-17.344c-6.528-2.896-13.008-5.888-19.376-9.040l-9.248 15.984-56.080-32.352 9.264-16.032c-5.92-3.968-11.728-8.096-17.456-12.32l-11.952 14.224-49.6-41.6 12.016-14.32c-5.152-4.928-10.176-9.968-15.104-15.104l-14.32 12-41.616-49.584 14.256-11.936c-4.224-5.744-8.352-11.552-12.32-17.456l-16 9.248-32.384-56.080 15.984-9.216c-3.152-6.368-6.144-12.848-9.040-19.376l-17.328 6.32-22.16-60.816 17.312-6.304c-2-6.832-3.872-13.712-5.568-20.672l-18.080 3.2-11.264-63.728 18.064-3.2c-0.768-7.056-1.328-14.176-1.792-21.328h-18.4v-64.736h18.4c0.464-7.152 1.024-14.272 1.792-21.328l-18.064-3.184 11.248-63.744 18.064 3.2c1.696-6.96 3.584-13.84 5.584-20.672l-17.296-6.288 22.16-60.816 17.328 6.32c2.88-6.544 5.888-13.008 9.040-19.392l-15.984-9.248 32.384-56.064 16 9.248c3.968-5.92 8.096-11.728 12.32-17.472l-14.224-11.92 41.6-49.6 14.304 12.016c4.928-5.136 9.968-10.176 15.104-15.104l-12-14.304 49.584-41.616 11.936 14.224c5.728-4.208 11.536-8.336 17.456-12.304l-9.248-16.032 56.080-32.352 9.232 15.952c6.368-3.152 12.848-6.144 19.376-9.024l-6.304-17.312 60.816-22.176 6.288 17.296c6.832-2 13.712-3.872 20.672-5.584l-3.2-18.080 63.76-11.216 3.184 18.048c7.072-0.768 14.192-1.328 21.344-1.792l-0.016-18.416h64.72v18.416c7.152 0.464 14.288 1.024 21.344 1.792l3.184-18.048 63.744 11.216-3.184 18.096c6.944 1.68 13.808 3.568 20.64 5.568l6.304-17.296 60.816 22.176-6.304 17.312c6.528 2.896 13.008 5.872 19.392 9.040l9.216-15.968 56.064 32.352-9.232 16.016c5.92 3.968 11.712 8.112 17.456 12.336l11.936-14.24 49.6 41.616-12.016 14.304c5.136 4.944 10.176 9.968 15.104 15.104l14.32-11.984 41.632 49.568-14.256 11.936c4.224 5.744 8.336 11.552 12.32 17.472l16-9.232 32.368 56.032-15.952 9.232c3.152 6.368 6.144 12.864 9.024 19.392l17.328-6.32 22.16 60.816-17.296 6.304c2 6.832 3.872 13.712 5.584 20.672l18.064-3.2 11.248 63.76-18.064 3.168c0.768 7.056 1.328 14.192 1.792 21.344h18.4zM512 135.392c-172.368 0-312.608 140.24-312.608 312.592 0 172.384 140.24 312.608 312.608 312.608 172.352 0 312.608-140.224 312.608-312.608-0.016-172.352-140.272-312.592-312.608-312.592z" />
<glyph unicode="&#xe61c;" d="M535.616 434.048c-1.040-9.6-10.864-16.544-21.92-16.464-1.392 0-2.032 0-3.408 0-11.040-0.080-20.88 6.88-21.904 16.464-14.080 129.408-28.096 258.8-42.176 388.208 8.544 19.008 40.928 18.912 60.544 20.16 4.192 0.032 6.288 0.032 10.496 0 19.584-1.248 51.984-1.136 60.544-20.16-14.128-129.408-28.112-258.8-42.176-388.208zM566.32 307.376c0-30-24.32-54.32-54.32-54.32s-54.32 24.32-54.32 54.32c0 30 24.32 54.32 54.32 54.32s54.32-24.32 54.32-54.32zM1021.408 402.672c15.792 174.72-98.768 317.040-143.504 365.408v127.824h-108.352v-173.312l17.104-16.064c1.312-1.248 141.168-135.568 126.8-294.112-10.528-116.384-93.184-209.184-126.4-242.176h-550.112c-33.216 32.992-115.904 125.776-126.432 242.176-14.336 158.544 125.504 292.864 126.8 294.112l17.168 16.064v173.312h-108.384v-127.824c-44.752-48.352-159.296-190.688-143.504-365.408 10.768-119.184 76.032-216.144 124.384-272.896 25.264-29.648 49.568-62.016 49.568-66.576v-21.424c0-22.912 18.752-41.68 41.68-41.68h35.504c22.912 0 41.664 18.784 41.664 41.68v20.144h51.376v-20.144c0-22.912 12.72-41.68 28.24-41.68 15.504 0 28.208 18.784 28.208 41.68v20.144h35.248v-20.144c0-22.912 12.688-41.68 28.208-41.68s28.224 18.784 28.224 41.68v20.144h55.408v-20.144c0-22.912 12.672-41.68 28.192-41.68s28.224 18.784 28.224 41.68v20.144h40.304v-20.144c0-22.912 12.688-41.68 28.192-41.68 15.52 0 28.224 18.784 28.224 41.68v20.144h47.328v-20.144c0-22.912 18.8-41.68 41.696-41.68h35.52c22.912 0 41.664 18.784 41.664 41.68v21.424c0 10.128 24.32 61.456 46.4 90 44.944 58.208 95.936 145.36 105.36 249.472z" />
<glyph unicode="&#xe61d;" d="M1021.84 403.184c0.064 29.744 0.064 59.472 0 89.216-32.56 0.064-65.152-0.128-97.68 0.128-5.344 41.984-16.336 83.168-33.44 121.84 28.56 16.32 56.976 32.688 85.536 49.152-14.88 25.856-29.744 51.712-44.816 77.424-28.816-16.512-57.632-33.152-86.464-49.664-25.504 33.216-55.968 62.288-89.632 87.152 16.688 29.36 33.904 58.368 50.496 87.792-25.936 14.72-51.568 29.792-77.568 44.464-17.216-29.616-34.4-59.28-51.6-88.96-35.712 14.416-73.28 24.016-111.504 28.672-0.16 32.512-0.064 65.008-0.064 97.52-29.856 0.080-59.728 0.144-89.584 0.080-0.144-32.576-0.080-65.072-0.080-97.648-40.256-4.72-79.552-15.456-117.040-30.784-17.36 29.28-34.128 58.88-51.312 88.224-25.856-14.928-51.776-29.808-77.648-44.736 16.928-29.392 34.016-58.688 51.008-88.080-31.584-24.208-60.592-51.84-84.544-83.68-30.864 17.232-61.248 35.328-92.048 52.624-14.8-25.856-29.904-51.44-44.656-77.296 30.080-17.712 60.592-34.608 90.576-52.432-14.592-33.552-24.928-68.816-31.040-104.88-38.896-0.144-77.76 0-116.576-0.064-0.080-29.728-0.080-59.408 0.064-89.152 37.616-0.144 75.248 0 112.816-0.064 3.44-39.344 11.664-78.176 25.328-115.2-33.552-19.552-67.296-38.688-100.848-58.096 14.928-25.792 29.792-51.664 44.784-77.36 32.384 18.464 64.624 37.136 96.928 55.664 22.384-32.848 49.072-62.64 79.344-88.432-18.672-32.896-37.808-65.536-56.832-98.304 25.824-15.040 51.744-30.048 77.76-44.736 17.824 31.056 36.112 61.84 53.568 93.104 44.656-20.016 91.44-35.872 140.32-40.944 0.064-32.608 0-65.184 0.064-97.744 29.936 0 59.808-0.080 89.744 0.064-0.064 32.56-0.224 65.072 0 97.568 41.056 4.864 81.184 15.728 119.248 31.84 15.632-27.040 31.216-54.016 46.88-81.008 25.904 14.96 51.744 29.744 77.568 44.816-15.536 27.104-31.248 54.096-46.912 81.104 33.216 25.552 63.088 55.216 87.968 88.96 26.192-14.88 52.288-30.064 78.464-44.992 15.024 25.712 29.936 51.504 44.752 77.44-26.288 15.264-52.752 30.128-78.912 45.6 14.816 36.432 24.912 74.672 29.808 113.744 32.56 0 65.216 0.064 97.776 0.064zM758.752 230.88c-67.248-74.224-170.4-114-270.16-103.44-85.712 7.968-166.976 52.464-220.656 119.68-63.792 78.416-86.912 188.032-59.328 285.456 31.152 118.848 136.176 213.584 257.408 232.912 87.792 15.536 181.328-7.968 251.616-62.64 64.192-49.152 108.88-123.168 121.568-203.024 16.512-95.712-14.48-197.76-80.448-268.944zM634.16 406.944c-36.432 3.504-73.216 0.4-109.808 1.536-0.064 17.68-0.064 35.472 0 53.136 36.944 0.88 74.032-1.808 110.88 1.408 22.592 7.568 21.84 43.088-1.248 49.344-36.368 3.44-73.088 0.192-109.632 1.376-0.064 17.696-0.064 35.456 0 53.152 37.056 1.008 74.288-2.16 111.184 1.6 21.936 7.76 21.6 42.624-1.088 49.024-36.496 3.6-73.44 0.32-110.16 1.504-1.6 25.52 3.632 52.096-3.152 76.912-11.968 31.248-63.952 23.008-65.2-10.528-1.84-120.864 0-241.856-0.928-362.8-37.216-20.944-52.96-72.752-27.808-108.752 25.44-41.632 91.616-44.944 121.12-5.936 30.256 35.216 16.624 93.312-23.904 114.368-0.064 11.376-0.064 22.752-0.064 34.16 37.008 0.816 74.288-2.128 111.12 1.344 22.24 7.712 21.472 42.832-1.312 49.152z" />
<glyph unicode="&#xe61e;" d="M291.088 212.128l-23.52 23.536 445.024 445.568 23.472-23.536zM860.464 538.736l-266.656 267.056 19.6 19.632 266.688-267.024zM155.795 367.146l266.703-267.043-19.654-19.629-266.703 267.043 19.654 19.629zM829.344 406.592l-24.976 25.008c-13.84 13.904-13.84 36.464 0 50.304l132.464 132.656c13.84 13.904 36.4 13.904 50.224 0l25.024-25.008c13.808-13.872 13.808-36.448 0-50.32l-132.496-132.64c-13.84-13.872-36.368-13.872-50.24 0zM972.32 599.776c-5.712 5.68-15.008 5.68-20.688 0l-132.464-132.656c-5.68-5.728-5.68-15.008 0-20.72l24.976-25.008c5.68-5.712 15.008-5.712 20.688 0l132.496 132.624c5.664 5.696 5.664 14.992 0 20.704l-25.008 25.056zM371.76-51.632l-24.992 25.024c-13.872 13.84-13.872 36.4 0 50.32l132.448 132.592c13.856 13.872 36.384 13.872 50.24 0l24.976-24.976c13.872-13.904 13.872-36.4 0-50.32l-132.448-132.656c-13.824-13.856-36.368-13.856-50.224 0.016zM514.688 141.568c-5.664 5.68-15.008 5.68-20.704 0l-132.448-132.624c-5.68-5.744-5.68-15.024 0.016-20.752l24.976-25.024c5.712-5.68 14.976-5.68 20.688 0l132.464 132.656c5.68 5.68 5.68 15.024 0 20.752l-24.992 24.992zM36.912 283.664l-25.008 25.024c-13.808 13.872-13.808 36.432 0 50.32l132.48 132.64c13.888 13.872 36.4 13.872 50.24 0l25.008-25.008c13.856-13.904 13.856-36.448 0-50.352l-132.448-132.624c-13.856-13.888-36.432-13.888-50.272 0zM179.84 476.848c-5.696 5.68-14.96 5.68-20.672 0l-132.464-132.64c-5.68-5.712-5.68-15.008 0-20.752l25.008-24.976c5.696-5.744 14.96-5.744 20.672 0l132.464 132.592c5.712 5.728 5.712 15.008 0 20.736l-25.008 25.040zM492.256 739.632l-24.96 25.024c-13.872 13.888-13.872 36.448 0 50.32l132.48 132.656c13.808 13.872 36.368 13.872 50.192 0l25.024-25.024c13.808-13.856 13.808-36.448 0-50.336l-132.496-132.624c-13.84-13.888-36.368-13.888-50.24-0.016zM635.184 932.8c-5.664 5.728-14.944 5.728-20.688 0l-132.432-132.624c-5.712-5.728-5.712-14.992 0-20.72l24.992-25.008c5.696-5.712 14.96-5.712 20.688-0.016l132.448 132.656c5.712 5.696 5.712 15.008 0 20.72l-25.008 24.992zM602.624 466.864c-33.44-33.424-78.496-42.496-100.784-20.208-22.272 22.304-13.248 67.472 20.16 100.896 33.376 33.44 78.496 42.464 100.72 20.176 22.288-22.256 13.28-67.424-20.096-100.864zM321.328 181.84c-23.2-23.184-60.8-23.184-83.952 0-23.216 23.216-23.216 60.88 0 84.096 23.152 23.184 60.752 23.184 83.952 0 23.152-23.216 23.152-60.88 0-84.096zM778.912 640.064c-23.184-23.232-60.784-23.232-83.968 0-23.152 23.2-23.152 60.848 0 84.048 23.184 23.2 60.784 23.2 83.968 0 23.152-23.2 23.152-60.848 0-84.048z" />
<glyph unicode="&#xe61f;" d="M749.408 287.184c-1.984 1.888-4.032 3.6-7.264 6.080-7.328 5.904-17.808 5.28-24.4-1.328l-25.424-25.408-120.88 120.784 179.664 179.664c22.528-8.32 46.048-12.544 70.304-12.544 53.984 0 104.784 21.024 142.912 59.232 59.408 59.328 75.76 150.752 40.8 227.264-2.528 5.44-7.536 9.376-13.44 10.368-5.872 1.088-11.984-0.8-16.208-5.008l-73.248-73.28-60.208 4.56-4.592 60.208 73.28 73.28c4.224 4.208 6.080 10.304 5.008 16.176-1.072 5.92-4.928 10.928-10.384 13.44-26.304 12-55.456 18.336-84.448 18.336-53.936 0-104.672-21.024-142.768-59.136-56.544-56.544-74.272-138.928-46.608-213.184l-179.776-179.664-206.832 206.832 12.976 12.96c3.472 3.424 5.36 8.16 5.36 13.008 0 4.832-1.888 9.472-5.36 12.96l-137.968 137.872c-6.784 6.896-18.976 6.896-25.872 0l-51.792-51.808c-7.264-7.152-7.264-18.688 0-25.872l137.872-137.952c3.584-3.584 8.32-5.376 12.976-5.376 4.736 0 9.392 1.792 12.976 5.376l12.96 12.976 206.848-206.944-152.72-152.64c-22.448 8.336-46.064 12.512-70.32 12.512-53.952 0-104.672-21.008-142.784-59.136-59.408-59.392-75.856-150.736-40.8-227.328 2.512-5.44 7.52-9.28 13.424-10.368 5.824-1.072 11.888 0.816 16.192 5.12l73.28 73.248 60.112-4.656 4.656-60.096-73.28-73.296c-4.224-4.288-6.192-10.368-5.104-16.192 1.088-5.888 5.008-10.992 10.384-13.408 26.304-12.080 55.568-18.432 84.544-18.432 53.952 0 104.672 21.008 142.784 59.136 56.544 56.544 74.16 139.008 46.608 213.184l152.704 152.736 120.784-120.88-25.408-25.408c-6.608-6.544-6.272-18.16-0.624-25.52 1.68-2.048 3.392-4.192 5.376-6.16l207.216-207.12c15.376-15.488 36.032-24.256 56.704-24.256 18.256 0 35.264 6.832 47.6 19.248l4.304 4.288c13.6 13.52 20.384 32.144 19.056 52.272-1.152 19.312-9.744 37.744-24.096 52.064l-207.056 207.216z" />
<glyph unicode="&#xe620;" d="M1022.544 448c0 281.52-229.024 510.56-510.544 510.56s-510.544-229.040-510.544-510.56 229.024-510.56 510.544-510.56 510.544 229.040 510.544 510.56zM75.664 448c0 240.592 195.744 436.336 436.336 436.336 240.576 0 436.336-195.728 436.336-436.336s-195.76-436.336-436.336-436.336c-240.592 0-436.336 195.744-436.336 436.336zM803.168 448c0 160.544-130.64 291.152-291.168 291.152s-291.152-130.608-291.152-291.152c0-160.528 130.624-291.168 291.152-291.168s291.168 130.64 291.168 291.168zM512 224.080c-123.472 0-223.92 100.432-223.92 223.92 0 123.472 100.448 223.936 223.92 223.936s223.92-100.464 223.92-223.936c0-123.488-100.448-223.92-223.92-223.92zM652.384 109.536c-4.032 18.976-15.728 34.304-31.12 43.552-28.16-10.512-58.272-17.040-89.568-19.008-10.288-14.704-14.752-33.488-10.72-52.432 4.128-19.408 16.304-34.992 32.24-44.192 30.352 3.024 59.696 9.488 87.776 18.752 10.752 14.848 15.488 33.968 11.392 53.328zM149.584 494.080c18.448-5.968 37.584-3.52 53.296 5.2 5.184 30.736 14.832 59.952 28.32 87.008-7.616 16.32-21.632 29.584-40.080 35.568-6.88 2.24-13.824 3.296-20.672 3.296-11.888 0-23.424-3.184-33.52-8.992-12.256-27.040-21.744-55.616-27.936-85.376 7.488-16.832 21.712-30.56 40.592-36.704zM208.272 368.928c-6.416 24.992-9.84 51.104-9.84 78.048 0 4.384 0.144 8.752 0.32 13.088-11.888 10.336-27.344 16.528-43.984 16.528-2.336 0-4.688-0.128-7.056-0.368-19.696-2.080-36.448-12.512-47.248-27.376 0-0.608-0.048-1.248-0.048-1.872 0-30 3.312-59.232 9.44-87.424 13.648-12.304 32.192-19.008 51.92-16.944 19.232 2.032 35.648 12 46.496 26.32zM250.976 620.48c17.008 25.504 37.632 48.384 61.152 67.904-0.288 18-7.696 35.856-22.144 48.864-12.832 11.552-28.88 17.184-44.88 17.184-2.24 0-4.48-0.112-6.704-0.336-22.512-20.080-42.784-42.608-60.448-67.136 0.096-18.256 7.504-36.384 22.144-49.568 14.432-12.992 32.96-18.48 50.88-16.912zM266.336 252.448c-18.912 23.808-34.384 50.368-45.776 79.056-6.416 1.936-13.104 2.944-19.84 2.944-11.36 0-22.848-2.864-33.408-8.944-17.104-9.888-28.16-26.192-32.016-44.128 12.24-27.68 27.376-53.824 45.152-77.936 17.408-5.584 36.976-4.112 54.016 5.728 16.864 9.728 27.856 25.696 31.872 43.28zM503.008 81.632c4.032 18.96-0.416 37.728-10.72 52.432-31.328 1.968-61.408 8.512-89.6 19.008-15.36-9.248-27.056-24.576-31.088-43.552-4.112-19.36 0.624-38.464 11.392-53.344 28.064-9.264 57.424-15.712 87.776-18.752 15.952 9.216 28.112 24.8 32.24 44.208zM366.704 169.248c-27.184 14.272-52.048 32.4-73.84 53.728-17.904-2.16-34.912-11.408-46.336-27.152-11.6-15.936-15.056-35.28-11.36-53.168 22.224-20.24 46.72-38 72.976-53.008 18.176 1.984 35.472 11.264 47.056 27.216 11.408 15.712 14.96 34.72 11.504 52.384zM344.176 711.648c25.552 16.272 53.616 28.928 83.472 37.28 7.024 16.56 7.504 35.808-0.4 53.552-8.064 18.096-23.168 30.8-40.672 36.48-28.896-9.264-56.368-21.664-82.096-36.768-7.36-16.72-7.984-36.352 0.032-54.368 7.92-17.76 22.624-30.336 39.664-36.176zM856.672 325.52c-10.512 6.080-22.032 8.944-33.408 8.944-6.736 0-13.424-1.008-19.808-2.944-11.392-28.688-26.896-55.264-45.792-79.056 4.032-17.6 14.992-33.552 31.824-43.264 17.104-9.84 36.656-11.312 54.080-5.728 17.744 24.112 32.912 50.256 45.136 77.936-3.824 17.936-14.896 34.224-32.032 44.112zM792.816 586.288c13.472-27.024 23.136-56.272 28.336-87.008 15.68-8.704 34.816-11.168 53.264-5.2 18.896 6.144 33.104 19.888 40.592 36.704-6.192 29.76-15.68 58.336-27.952 85.392-10.080 5.776-21.616 8.976-33.504 8.976-6.848 0-13.808-1.056-20.656-3.296-18.496-6-32.496-19.264-40.080-35.568zM876.304 476.224c-2.384 0.256-4.736 0.368-7.088 0.368-16.608 0-32.080-6.192-44-16.528 0.224-4.336 0.352-8.704 0.352-13.088 0-26.944-3.424-53.072-9.824-78.048 10.832-14.32 27.264-24.288 46.48-26.304 19.728-2.096 38.288 4.624 51.936 16.944 6.128 28.176 9.44 57.408 9.44 87.408 0 0.624-0.064 1.264-0.064 1.872-10.8 14.848-27.536 25.312-47.232 27.376zM731.136 222.992c-21.776-21.328-46.656-39.472-73.84-53.728-3.44-17.664 0.096-36.672 11.52-52.384 11.6-15.952 28.88-25.232 47.024-27.216 26.272 15.008 50.752 32.784 73.008 53.008 3.712 17.888 0.256 37.232-11.344 53.168-11.44 15.744-28.48 24.992-46.368 27.152zM773.008 620.48c17.936-1.584 36.448 3.92 50.864 16.928 14.656 13.168 22.096 31.312 22.176 49.568-17.664 24.544-37.936 47.056-60.416 67.136-2.272 0.224-4.528 0.336-6.784 0.336-16 0-32.016-5.648-44.832-17.184-14.432-13.008-21.84-30.864-22.176-48.848 23.536-19.52 44.176-42.416 61.168-67.936zM596.752 802.464c-7.872-17.728-7.44-36.992-0.416-53.552 29.888-8.352 57.936-21.008 83.504-37.28 17.024 5.84 31.712 18.416 39.632 36.176 8.016 18.016 7.424 37.664 0.064 54.368-25.744 15.104-53.2 27.504-82.112 36.768-17.52-5.68-32.624-18.384-40.672-36.48zM444.832 806.208c0-19.392 8.256-36.784 21.36-49.040 14.96 2.208 30.256 3.376 45.808 3.376s30.864-1.168 45.792-3.376c13.136 12.272 21.36 29.664 21.36 49.040 0 19.808-8.608 37.568-22.272 49.856-14.752 1.6-29.728 2.496-44.88 2.496-15.184 0-30.144-0.896-44.912-2.496-13.648-12.304-22.256-30.048-22.256-49.856z" />
<glyph unicode="&#xe621;" d="M927.344 654.016l-77.008-62.448h-5.424l-7.184 64.496-100.096 2-84.832 88.48h-127.312v55.248h59.12c11.984 0 21.632 9.696 21.632 21.648 0 11.904-9.648 21.6-21.632 21.6h-262.608c-11.92 0-21.632-9.696-21.632-21.6 0-11.936 9.712-21.648 21.632-21.648h57.552v-55.248h-92.208l-61.28-55.856h-132.128v-178.416h-50.464v201.232c0 11.952-9.696 21.6-21.632 21.6s-21.616-9.664-21.616-21.6v-543.008c0-11.936 9.68-21.632 21.616-21.632s21.632 9.68 21.632 21.632v195.792h50.464v-160.688l74.304-69.904h119.312l95.504-84.72h414.496l47.808 72.816v49.712h20.096l61.744-78.72 96.544 108.32v338.816l-96.4 112.096zM980.528 219.6l-51.2-57.44-42.816 54.56h-84.416v-80l-27.872-42.528h-374.768l-95.504 84.72h-118.56l-48.224 45.376v423.136h105.68l61.296 55.856h330.176l84.496-88.096 80.112-1.616 7.248-65.264h59.472l56.288 45.664 58.592-68.096v-306.272z" />
<glyph unicode="&#xe622;" d="M785.776 16.32h-547.52c-18.096 0-32.784-14.688-32.784-32.784v-14.768c0-18.112 14.688-32.784 32.784-32.784h547.52c18.096 0 32.752 14.672 32.752 32.784v14.768c0 18.096-14.656 32.784-32.752 32.784zM620.912 530.704l49.936 218.432c-5.44-0.896-10.944-1.488-16.592-1.488-25.12 0-48 9.328-65.568 24.592l-50.976-222.992c22 6.528 52.512 7.296 83.2-18.544zM764.432 31.072c0 208.16-126.224 319.616-126.224 319.616-26.224 47.536 0 145.888 0 145.888-6.16 7.568-12.336 13.84-18.56 19.088-30.72 25.84-61.2 25.072-83.184 18.544-19.76-5.856-32.672-16.336-32.672-16.336-19.664-75.408-114.736-183.6-114.736-183.6-122.944-149.152-116.368-303.216-116.368-303.216h491.744zM595.808 784.624c17.536-15.28 40.432-24.592 65.504-24.592 5.68 0 11.216 0.592 16.656 1.504 47.28 7.92 83.344 48.944 83.344 98.496 0 55.2-44.752 99.984-100 99.984-55.184 0-99.968-44.784-99.968-99.984 0-30.128 13.376-57.072 34.464-75.408z" />
<glyph unicode="&#xe623;" d="M403.424-62.64c-158.8 0-287.968 129.2-287.968 287.968 0 158.8 129.168 287.984 287.968 287.984s287.936-129.184 287.936-287.984c0-158.768-129.136-287.968-287.936-287.968zM403.424 475.552c-137.968 0-250.208-112.24-250.208-250.224 0-137.952 112.24-250.208 250.208-250.208 137.952 0 250.208 112.256 250.208 250.208 0 137.984-112.256 250.224-250.208 250.224zM230.336 958.64c-97.344 0-176.256-78.912-176.256-176.256s78.912-176.24 176.256-176.24 176.256 78.896 176.256 176.24-78.928 176.256-176.256 176.256zM230.336 725.744c-31.28 0-56.64 25.36-56.64 56.64s25.36 56.64 56.64 56.64 56.64-25.36 56.64-56.64-25.36-56.64-56.64-56.64zM850.32 678.528c-66.032 0-119.6-53.552-119.6-119.6 0-66.032 53.568-119.6 119.6-119.6 66.080 0 119.616 53.568 119.616 119.6-0.016 66.064-53.552 119.6-119.616 119.6zM850.32 513.312c-25.184 0-45.632 20.432-45.632 45.632s20.432 45.632 45.632 45.632c25.2 0 45.648-20.416 45.648-45.632-0.016-25.2-20.448-45.632-45.648-45.632zM403.424 455.12c-126.912 0-229.776-102.88-229.776-229.792 0-126.896 102.88-229.76 229.776-229.76s229.76 102.88 229.76 229.76c0 126.928-102.848 229.792-229.76 229.792zM403.424 135.632c-49.552 0-89.696 40.192-89.696 89.696 0 49.536 40.16 89.696 89.696 89.696s89.68-40.176 89.68-89.696c0-49.52-40.128-89.696-89.68-89.696zM112.4 627.184c-22.464 17.104-41.184 38.848-54.528 63.984l42.336-385.648c8.24 31.248 21.072 60.544 37.936 87.168l-25.744 234.496zM776.384 683.232c20.64 12.304 44.544 19.632 70.176 20.288l-474.736 212.976c19.056-20.096 33.84-44.256 43.008-71.024l361.552-162.24zM850.32 414.176c-2.096 0-4.128 0.224-6.208 0.32l-127.36-177.216c0.144-3.984 0.608-7.904 0.608-11.936 0-29.376-4.352-57.664-11.888-84.64l206.576 287.44c-18.736-8.848-39.616-13.968-61.728-13.968z" />
</font>
</defs>
</svg>
