<?xml version="1.0" standalone="no"?>
<!DOCTYPE svg PUBLIC "-//W3C//DTD SVG 1.1//EN" "http://www.w3.org/Graphics/SVG/1.1/DTD/svg11.dtd" >
<svg xmlns="http://www.w3.org/2000/svg">
<metadata>Generated by IcoMoon</metadata>
<defs>
<font id="car" horiz-adv-x="512">
<font-face units-per-em="512" ascent="480" descent="-32" />
<missing-glyph horiz-adv-x="512" />
<glyph unicode="&#x20;" d="" horiz-adv-x="256" />
<glyph unicode="&#x21;" d="M226-14.5q-12.5 12.5-12.5 30.25t12.5 30.25q12.25 12.25 30 12.25t30-12.25q12.5-12.5 12.5-30.25t-12.5-30.25q-12.5-12.75-30-12.75-17.75 0-30 12.75zM213.5 356.75q0 17.75 12.5 30.25 12.25 12.75 30 12.75 17.5 0 30-12.75 12.5-12.5 12.5-30.25 0-3.75-0.5-6.25l-20.5-249.75h-43l-20.5 249.75q-0.5 2.5-0.5 6.25z" />
<glyph unicode="&#xe600;" d="M210.043 261.406c-45.977 0-83.394-37.406-83.394-83.394 0-45.968 37.406-83.385 83.394-83.385 45.967 0 83.385 37.406 83.385 83.385-0.010 45.988-37.417 83.394-83.385 83.394zM210.043 98.642c-43.776 0-79.401 35.615-79.401 79.38 0 43.786 35.625 79.401 79.401 79.401 43.766 0 79.38-35.625 79.38-79.401 0-43.766-35.614-79.38-79.38-79.38zM210.043 204.902c-14.817 0-26.88-12.063-26.88-26.88 0-14.807 12.063-26.88 26.88-26.88s26.88 12.063 26.88 26.88c0 14.838-12.063 26.88-26.88 26.88zM210.043 167.096c-6.042 0-10.936 4.905-10.936 10.916 0 6.031 4.905 10.937 10.936 10.937s10.926-4.905 10.926-10.937c0-6.011-4.885-10.916-10.926-10.916zM404.757 335.401c3.031 4.362 4.844 9.615 4.844 15.319 0 14.817-12.063 26.88-26.88 26.88-4.905 0-9.431-1.413-13.404-3.707l-0.021 0.051-204.4-98.314c-36.844-17.111-62.495-54.375-62.495-97.587 0-59.341 48.282-107.643 107.643-107.643 42.639 0 79.462 24.986 96.86 61.041l0.144-0.062 97.71 204.022zM381.604 323.942l-64.532-134.707c-5.253 50.442-45.466 90.644-95.908 95.836l134.759 64.727c0.481-14.008 11.673-25.262 25.682-25.856zM393.636 350.72c0-2.622-0.962-4.997-2.488-6.882l-0.031 0.010-0.062-0.113c-2.007-2.386-4.976-3.942-8.336-3.942-6.041 0-10.937 4.905-10.937 10.926s4.905 10.926 10.937 10.926 10.916-4.915 10.916-10.926zM210.043 86.354c-50.565 0-91.678 41.134-91.678 91.689 0 50.565 41.134 91.689 91.678 91.689 50.565 0 91.678-41.134 91.678-91.689 0-50.565-41.134-91.689-91.678-91.689zM200.397 231.291c0 5.325 4.311 9.636 9.615 9.636 5.325 0 9.625-4.311 9.625-9.636s-4.311-9.625-9.625-9.625c-5.304 0-9.615 4.311-9.615 9.625zM219.658 122.337c0-5.325-4.321-9.636-9.615-9.636-5.325 0-9.636 4.322-9.636 9.636s4.322 9.636 9.636 9.636c5.294 0.010 9.615-4.311 9.615-9.636zM274.135 176.825c0-5.325-4.301-9.615-9.625-9.615s-9.625 4.301-9.625 9.615 4.322 9.615 9.625 9.615c5.335 0 9.625-4.301 9.625-9.615zM165.191 176.825c0-5.325-4.321-9.615-9.625-9.615-5.325 0-9.625 4.301-9.625 9.615s4.311 9.615 9.625 9.615c5.304 0 9.625-4.301 9.625-9.615z" />
<glyph unicode="&#xe601;" d="M273.472 461.648c-92.544 0-172.792-53.232-212.008-130.64 2.016 0.152 4.040 0.312 6.096 0.312 32.024 0 59.72-18.592 73.056-45.512 23.36 50.024 74.104 84.816 132.856 84.816 80.848 0 146.616-65.768 146.616-146.608 0-80.848-65.768-146.616-146.616-146.616-27.296 0-52.84 7.544-74.744 20.592 0.16-2.080 0.4-4.128 0.4-6.232 0-31.88-18.432-59.48-45.168-72.88 35.144-20.568 75.92-32.504 119.504-32.504 131.056 0 237.656 106.592 237.656 237.648 0.008 131.024-106.6 237.624-237.648 237.624z" />
<glyph unicode="&#xe602;" d="M199.128 91.752c0 2.112-0.248 4.16-0.4 6.232-1.032 13.728-5.408 26.584-12.528 37.72-5.048 4.984-9.6 10.456-13.736 16.24-3.912 3.544-8.072 6.856-12.688 9.632 0.096 1.608 0.144 3.2 0.144 4.816 0 2.856-0.2 5.704-0.504 8.52-3.8 8.816-6.504 18.168-8.184 27.904-2.504 5.008-5.464 9.8-8.968 14.216 4.504 10.264 6.848 21.368 6.848 32.736 0 12.944-3.112 25.152-8.504 36.024-13.336 26.92-41.032 45.512-73.056 45.512-2.056 0-4.080-0.16-6.096-0.312-42.128-3.136-75.456-38.32-75.456-81.232 0-18.488 6.32-36.336 17.648-50.648-4.512-10.264-6.856-21.376-6.856-32.736 0-29.096 15.088-55.232 39.368-69.816-0.088-1.624-0.144-3.216-0.144-4.832 0-44.968 36.584-81.56 81.552-81.56 13.088 0 25.424 3.168 36.392 8.68 26.728 13.424 45.168 41.016 45.168 72.904zM117.568 27.264c-35.608 0-64.48 28.872-64.48 64.488 0 5.032 0.592 9.92 1.688 14.624-23.952 9.408-40.912 32.736-40.912 60.016 0 13.080 3.912 25.232 10.608 35.408-13.144 11.816-21.4 28.92-21.4 47.976 0 35.608 28.856 64.48 64.472 64.48 35.608 0 64.472-28.872 64.472-64.48 0-13.088-3.904-25.248-10.6-35.408 13.128-11.816 21.4-28.92 21.4-47.968 0-5.032-0.6-9.936-1.688-14.624 23.944-9.424 40.904-32.72 40.904-60.016 0.008-35.616-28.856-64.496-64.464-64.496z" />
<glyph unicode="&#xe603;" d="M141.144 151.768c1.088 4.688 1.688 9.592 1.688 14.624 0 19.048-8.272 36.16-21.4 47.968 6.688 10.168 10.6 22.328 10.6 35.408 0 35.608-28.864 64.48-64.472 64.48-35.616 0-64.472-28.872-64.472-64.48 0-19.056 8.256-36.16 21.4-47.976-6.696-10.168-10.608-22.328-10.608-35.408 0-27.28 16.968-50.608 40.912-60.016-1.096-4.704-1.688-9.592-1.688-14.624 0-35.608 28.872-64.488 64.48-64.488s64.472 28.872 64.472 64.488c-0.016 27.304-16.976 50.6-40.912 60.024z" />
<glyph unicode="&#xe604;" d="M397.648 224c0 68.584-55.592 124.176-124.176 124.176s-124.184-55.592-124.184-124.176c0-7.24 0.744-14.288 1.936-21.184 1.672-9.736 4.384-19.096 8.184-27.904 3.512-8.168 7.944-15.824 13.048-22.968 4.136-5.792 8.688-11.256 13.736-16.24 22.432-22.176 53.248-35.888 87.28-35.888 68.584 0 124.176 55.592 124.176 124.184zM359.392 236.136c7.528 0 13.648-6.12 13.648-13.664 0-7.536-6.12-13.664-13.648-13.664-7.544 0-13.656 6.128-13.656 13.664 0 7.544 6.104 13.664 13.656 13.664zM273.472 322.040c7.536 0 13.656-6.12 13.656-13.648 0-7.536-6.12-13.656-13.656-13.656-7.544 0-13.656 6.12-13.656 13.656s6.104 13.648 13.656 13.648zM187.56 208.816c-7.536 0-13.656 6.128-13.656 13.664 0 7.544 6.112 13.664 13.656 13.664s13.656-6.12 13.656-13.664c-0.008-7.544-6.112-13.664-13.656-13.664zM225 224c0 26.776 21.704 48.488 48.472 48.488 26.784 0 48.48-21.712 48.48-48.488 0-26.768-21.696-48.472-48.48-48.472-26.768 0-48.472 21.704-48.472 48.472zM259.816 136.56c0 7.528 6.104 13.64 13.656 13.64 7.536 0 13.656-6.112 13.656-13.64 0-7.544-6.12-13.656-13.656-13.656-7.552 0-13.656 6.112-13.656 13.656z" />
<glyph unicode="&#xe605;" d="M148.153 291.758h32.154v-9.913h-32.154v9.913zM341.873 270.725h9.913v11.12h11.12v9.912h-11.12v11.12h-9.913v-11.12h-11.111v-9.912h11.111v-11.12zM409.6 331.397v-231.271h-307.2v231.27h45.752v16.466h32.154v-16.466h151.399v16.466h32.154v-16.466h45.742zM122.225 119.941h108.851l15.606 94.423h-48.896l40.734 97.219h-116.296v-191.642zM389.776 311.572h-100.864l-34.365-58.553h40.192l-60.795-133.079h155.822v191.632z" />
<glyph unicode="&#xe606;" d="M511.272 224c0 140.76-114.512 255.28-255.272 255.28s-255.272-114.52-255.272-255.28 114.512-255.28 255.272-255.28 255.272 114.52 255.272 255.28zM37.832 224c0 120.296 97.872 218.168 218.168 218.168 120.288 0 218.168-97.864 218.168-218.168s-97.88-218.168-218.168-218.168c-120.296 0-218.168 97.872-218.168 218.168zM401.584 224c0 80.272-65.32 145.576-145.584 145.576s-145.576-65.304-145.576-145.576c0-80.264 65.312-145.584 145.576-145.584s145.584 65.32 145.584 145.584zM256 112.040c-61.736 0-111.96 50.216-111.96 111.96 0 61.736 50.224 111.968 111.96 111.968s111.96-50.232 111.96-111.968c0-61.744-50.224-111.96-111.96-111.96zM326.192 54.768c-2.016 9.488-7.864 17.152-15.56 21.776-14.080-5.256-29.136-8.52-44.784-9.504-5.144-7.352-7.376-16.744-5.36-26.216 2.064-9.704 8.152-17.496 16.12-22.096 15.176 1.512 29.848 4.744 43.888 9.376 5.376 7.424 7.744 16.984 5.696 26.664zM74.792 247.040c9.224-2.984 18.792-1.76 26.648 2.6 2.592 15.368 7.416 29.976 14.16 43.504-3.808 8.16-10.816 14.792-20.040 17.784-3.44 1.12-6.912 1.648-10.336 1.648-5.944 0-11.712-1.592-16.76-4.496-6.128-13.52-10.872-27.808-13.968-42.688 3.744-8.416 10.856-15.28 20.296-18.352zM104.136 184.464c-3.208 12.496-4.92 25.552-4.92 39.024 0 2.192 0.072 4.376 0.16 6.544-5.944 5.168-13.672 8.264-21.992 8.264-1.168 0-2.344-0.064-3.528-0.184-9.848-1.040-18.224-6.256-23.624-13.688 0-0.304-0.024-0.624-0.024-0.936 0-15 1.656-29.616 4.72-43.712 6.824-6.152 16.096-9.504 25.96-8.472 9.616 1.016 17.824 6 23.248 13.16zM125.488 310.24c8.504 12.752 18.816 24.192 30.576 33.952-0.144 9-3.848 17.928-11.072 24.432-6.416 5.776-14.44 8.592-22.44 8.592-1.12 0-2.24-0.056-3.352-0.168-11.256-10.040-21.392-21.304-30.224-33.568 0.048-9.128 3.752-18.192 11.072-24.784 7.216-6.496 16.48-9.24 25.44-8.456zM133.168 126.224c-9.456 11.904-17.192 25.184-22.888 39.528-3.208 0.968-6.552 1.472-9.92 1.472-5.68 0-11.424-1.432-16.704-4.472-8.552-4.944-14.080-13.096-16.008-22.064 6.12-13.84 13.688-26.912 22.576-38.968 8.704-2.792 18.488-2.056 27.008 2.864 8.432 4.864 13.928 12.848 15.936 21.64zM251.504 40.816c2.016 9.48-0.208 18.864-5.36 26.216-15.664 0.984-30.704 4.256-44.8 9.504-7.68-4.624-13.528-12.288-15.544-21.776-2.056-9.68 0.312-19.232 5.696-26.672 14.032-4.632 28.712-7.856 43.888-9.376 7.976 4.608 14.056 12.4 16.12 22.104zM183.352 84.624c-13.592 7.136-26.024 16.2-36.92 26.864-8.952-1.080-17.456-5.704-23.168-13.576-5.8-7.968-7.528-17.64-5.68-26.584 11.112-10.12 23.36-19 36.488-26.504 9.088 0.992 17.736 5.632 23.528 13.608 5.704 7.856 7.48 17.36 5.752 26.192zM172.088 355.824c12.776 8.136 26.808 14.464 41.736 18.64 3.512 8.28 3.752 17.904-0.2 26.776-4.032 9.048-11.584 15.4-20.336 18.24-14.448-4.632-28.184-10.832-41.048-18.384-3.68-8.36-3.992-18.176 0.016-27.184 3.96-8.88 11.312-15.168 19.832-18.088zM428.336 162.76c-5.256 3.040-11.016 4.472-16.704 4.472-3.368 0-6.712-0.504-9.904-1.472-5.696-14.344-13.448-27.632-22.896-39.528 2.016-8.8 7.496-16.776 15.912-21.632 8.552-4.92 18.328-5.656 27.040-2.864 8.872 12.056 16.456 25.128 22.568 38.968-1.912 8.968-7.448 17.112-16.016 22.056zM396.408 293.144c6.736-13.512 11.568-28.136 14.168-43.504 7.84-4.352 17.408-5.584 26.632-2.6 9.448 3.072 16.552 9.944 20.296 18.352-3.096 14.88-7.84 29.168-13.976 42.696-5.040 2.888-10.808 4.488-16.752 4.488-3.424 0-6.904-0.528-10.328-1.648-9.248-3-16.248-9.632-20.040-17.784zM438.152 238.112c-1.192 0.128-2.368 0.184-3.544 0.184-8.304 0-16.040-3.096-22-8.264 0.112-2.168 0.176-4.352 0.176-6.544 0-13.472-1.712-26.536-4.912-39.024 5.416-7.16 13.632-12.144 23.24-13.152 9.864-1.048 19.144 2.312 25.968 8.472 3.064 14.088 4.72 28.704 4.72 43.704 0 0.312-0.032 0.632-0.032 0.936-5.4 7.424-13.768 12.656-23.616 13.688zM365.568 111.496c-10.888-10.664-23.328-19.736-36.92-26.864-1.72-8.832 0.048-18.336 5.76-26.192 5.8-7.976 14.44-12.616 23.512-13.608 13.136 7.504 25.376 16.392 36.504 26.504 1.856 8.944 0.128 18.616-5.672 26.584-5.72 7.872-14.24 12.496-23.184 13.576zM386.504 310.24c8.968-0.792 18.224 1.96 25.432 8.464 7.328 6.584 11.048 15.656 11.088 24.784-8.832 12.272-18.968 23.528-30.208 33.568-1.136 0.112-2.264 0.168-3.392 0.168-8 0-16.008-2.824-22.416-8.592-7.216-6.504-10.92-15.432-11.088-24.424 11.768-9.76 22.088-21.208 30.584-33.968zM298.376 401.232c-3.936-8.864-3.72-18.496-0.208-26.776 14.944-4.176 28.968-10.504 41.752-18.64 8.512 2.92 15.856 9.208 19.816 18.088 4.008 9.008 3.712 18.832 0.032 27.184-12.872 7.552-26.6 13.752-41.056 18.384-8.76-2.84-16.312-9.192-20.336-18.24zM222.416 403.104c0-9.696 4.128-18.392 10.68-24.52 7.48 1.104 15.128 1.688 22.904 1.688s15.432-0.584 22.896-1.688c6.568 6.136 10.68 14.832 10.68 24.52 0 9.904-4.304 18.784-11.136 24.928-7.376 0.8-14.864 1.248-22.44 1.248-7.592 0-15.072-0.448-22.456-1.248-6.824-6.152-11.128-15.024-11.128-24.928z" />
<glyph unicode="&#xe607;" d="M374.579 172.442v33.065h-14.981c-2.663 16.64-9.175 31.959-18.678 45.015l10.619 10.619-23.378 23.378-10.619-10.619c-13.056 9.493-28.375 16.016-45.015 18.668v14.991h-33.054v-14.991c-16.63-2.652-31.918-9.175-45.015-18.668l-10.599 10.619-23.388-23.378 10.619-10.619c-9.513-13.077-16.005-28.386-18.667-45.015h-15.001v-33.065h14.981c2.662-16.63 9.165-31.938 18.667-45.015l-10.619-10.608 23.388-23.378 10.599 10.619c13.077-9.493 28.375-16.005 45.015-18.668v-14.991h33.055v14.991c16.64 2.663 31.938 9.175 45.015 18.668l10.619-10.619 23.378 23.378-10.619 10.608c9.523 13.066 16.015 28.375 18.678 45.015h15.002zM327.957 188.979c0-39.68-32.276-71.957-71.957-71.957s-71.957 32.276-71.957 71.957 32.276 71.957 71.957 71.957c39.68 0 71.957-32.276 71.957-71.957zM256 247.552c-32.297 0-58.583-26.276-58.583-58.573s26.276-58.583 58.583-58.583c32.297 0 58.573 26.276 58.573 58.583 0.010 32.286-26.276 58.573-58.573 58.573zM256 141.425c-26.235 0-47.565 21.34-47.565 47.565s21.32 47.544 47.565 47.544c26.235 0 47.555-21.33 47.555-47.544s-21.32-47.565-47.555-47.565zM289.362 317.214l-6.584-6.574 7.803-7.793 6.584 6.574c3.901-2.775 8.438-4.68 13.384-5.519v-9.319h10.988v9.319c4.915 0.839 9.482 2.744 13.384 5.519l6.584-6.574 7.783 7.793-6.564 6.574c2.765 3.911 4.659 8.448 5.519 13.363h9.318v11.029h-9.318c-0.86 4.915-2.765 9.452-5.519 13.374l6.564 6.584-7.783 7.792-6.584-6.584c-3.922 2.775-8.438 4.68-13.384 5.519v9.319h-10.998v-9.319c-4.915-0.839-9.462-2.744-13.384-5.519l-6.584 6.584-7.803-7.792 6.584-6.584c-2.775-3.912-4.68-8.448-5.519-13.374h-9.319v-11.029h9.318c0.85-4.925 2.745-9.462 5.529-13.363zM316.017 352.307c8.94 0 16.22-7.271 16.22-16.22s-7.281-16.22-16.22-16.22-16.22 7.271-16.22 16.22c0 8.95 7.301 16.22 16.22 16.22z" />
<glyph unicode="&#xe608;" d="M344.453 239.36v-7.68h-80.773v80.773h7.68v22.774h-30.72v-22.774h7.68v-80.773h-80.773v7.68h-22.774v-30.72h22.774v7.68h80.773v-80.784h-7.68v-22.753h30.72v22.753h-7.68v80.784h80.773v-7.68h22.774v30.72z" />
<glyph unicode="&#xe609;" d="M463.672 327.008l-38.504-31.224h-2.712l-3.592 32.248-50.048 1-42.416 44.24h-63.656v27.624h29.56c5.992 0 10.816 4.848 10.816 10.824 0 5.952-4.824 10.8-10.816 10.8h-131.304c-5.96 0-10.816-4.848-10.816-10.8 0-5.968 4.856-10.824 10.816-10.824h28.776v-27.624h-46.104l-30.64-27.928h-66.064v-89.208h-25.232v100.616c0 5.976-4.848 10.8-10.816 10.8s-10.808-4.832-10.808-10.8v-271.504c0-5.968 4.84-10.816 10.808-10.816s10.816 4.84 10.816 10.816v97.896h25.232v-80.344l37.152-34.952h59.656l47.752-42.36h207.248l23.904 36.408v24.856h10.048l30.872-39.36 48.272 54.16v169.408l-48.2 56.048zM490.264 109.8l-25.6-28.72-21.408 27.28h-42.208v-40l-13.936-21.264h-187.384l-47.752 42.36h-59.28l-24.112 22.688v211.568h52.84l30.648 27.928h165.088l42.248-44.048 40.056-0.808 3.624-32.632h29.736l28.144 22.832 29.296-34.048v-153.136z" />
<glyph unicode="&#xe60a;" d="M212.203 213.156h-73.493v20.48h0.154v76.729h20.48v-76.729h52.859v76.729h20.48v-76.729h52.869v76.729h20.48v-76.729h52.859v76.729h20.48v-173.927h-20.48v76.718h-52.859v-76.718h-20.48v76.718h-52.869v-76.718h-20.48v76.718zM146.893 345.283h-9.175v-17.429h-9.216v44.114h22.231c4.198 0 7.577-1.126 10.148-3.379s3.861-5.212 3.861-8.889c0-4.239-1.434-7.342-4.291-9.298-0.758-0.522-1.618-0.963-2.581-1.321 0.542-0.215 1.034-0.461 1.475-0.717 2.519-1.495 3.83-4.024 3.942-7.557l0.215-7.23c0.041-1.444 0.205-2.457 0.451-3.062 0.256-0.604 0.758-1.075 1.495-1.444v-1.168h-10.178c-0.236 0.461-0.451 1.444-0.635 2.949s-0.266 3.143-0.286 4.885l-0.061 4.075c-0.051 1.976-0.635 3.389-1.762 4.229-1.137 0.839-3.011 1.239-5.632 1.239zM137.708 352.686h10.68c2.365 0 4.157 0.481 5.335 1.454 1.188 0.973 1.792 2.437 1.792 4.403 0 1.935-0.573 3.389-1.679 4.362-1.137 0.973-2.826 1.465-5.089 1.465h-11.038v-11.684zM217.846 327.865h8.601v43.735h-7.045c-1.085-2.457-2.724-4.352-4.864-5.673-2.119-1.321-4.516-1.915-7.198-1.772v-6.154h10.496l0.010-30.136zM223.488 91.566c4.26 2.734 7.158 5.171 8.704 7.353 1.556 2.181 2.345 4.925 2.345 8.264 0 4.045-1.362 7.342-4.076 9.902-2.744 2.56-6.256 3.84-10.558 3.84-4.608 0-8.263-1.403-10.875-4.168-2.642-2.775-3.881-6.553-3.738-11.294h8.438c-0.082 2.539 0.42 4.557 1.506 6.041 1.095 1.485 2.652 2.222 4.598 2.222 1.853 0 3.318-0.604 4.454-1.772 1.116-1.178 1.679-2.755 1.679-4.68 0-1.792-0.532-3.389-1.536-4.854-1.014-1.454-2.775-3.041-5.284-4.782-5.581-3.932-9.38-7.301-11.397-10.158s-3.021-6.298-3.021-10.301v0h29.819v7.547h-19.138l0.020 0.072c1.423 2.027 4.117 4.281 8.059 6.769zM295.394 333.527c-2.007 0-3.574 0.635-4.639 1.925s-1.608 3.174-1.649 5.632h-8.366c0.062-4.598 1.392-8.151 4.014-10.639 2.601-2.488 6.277-3.728 11.018-3.728 4.598 0 8.264 1.26 10.957 3.779s4.055 5.929 4.055 10.23c0 3.901-1.25 6.82-3.738 8.755-0.758 0.625-1.639 1.116-2.652 1.495l1.168 0.778c2.601 1.976 3.901 4.516 3.901 7.618 0 3.584-1.25 6.512-3.738 8.786-2.498 2.274-5.724 3.42-9.625 3.42-4.557 0-8.1-1.208-10.608-3.625s-3.789-5.837-3.85-10.301h7.916c0.041 2.202 0.574 3.891 1.598 5.079 1.034 1.188 2.478 1.792 4.373 1.792 1.608 0 2.918-0.532 3.901-1.577s1.474-2.416 1.474-4.116c0-1.782-0.502-3.154-1.495-4.106-0.798-0.778-1.894-1.25-3.236-1.413-0.88-0.103-1.71-0.174-2.488-0.205-0.768-0.031-1.29-0.021-1.515 0.020v-6.359c0.215 0.061 0.697 0.082 1.495 0.071 0.758-0.010 1.598-0.041 2.498-0.102 1.618-0.123 2.959-0.666 4.034-1.649 1.188-1.137 1.802-2.642 1.802-4.495 0-2.12-0.615-3.83-1.802-5.13-1.229-1.31-2.846-1.935-4.803-1.935zM306.493 93.655h4.915v-6.841h-4.915v-9.625h-8.448v9.625h-17.305v7.424l16.169 26.665h9.605l-0.021-27.248zM298.025 111.862l-10.957-18.227h10.957v18.227zM368.108 333.527c-1.853 0-3.287 0.502-4.352 1.495-1.065 1.003-1.7 2.488-1.925 4.434h-8.642c0.42-3.922 1.904-7.035 4.444-9.319s5.755-3.43 9.656-3.43c4.905 0 8.765 1.403 11.653 4.198s4.311 6.595 4.311 11.367c0 4.137-1.229 7.526-3.676 10.168-2.478 2.642-5.663 3.963-9.543 3.963-2.786 0-5.386-0.748-7.793-2.253l1.485 9.267h17.726v7.291h-23.89l-2.867-23.757 7.557-0.359c0.563 0.922 1.351 1.649 2.386 2.192 1.024 0.543 2.14 0.809 3.328 0.809 1.925 0 3.481-0.747 4.649-2.242 1.178-1.495 1.782-3.451 1.782-5.888 0-2.375-0.594-4.301-1.751-5.755-1.147-1.444-2.652-2.181-4.536-2.181zM383.498 91.136c0-4.444-1.423-8.059-4.209-10.875-2.816-2.806-6.421-4.219-10.824-4.219-4.915 0-8.673 1.853-11.213 5.519-2.56 3.697-3.83 9.093-3.83 16.179 0 7.824 1.423 13.701 4.229 17.644 2.622 3.676 6.421 5.54 11.397 5.54l0.901-0.031c3.625 0 6.605-1.055 8.909-3.154s3.563-4.874 3.717-8.294h-8.489c0.021 1.362-0.379 2.447-1.178 3.267-0.819 0.819-1.904 1.219-3.257 1.219h-0.348c-2.591 0.021-4.485-1.219-5.714-3.707-0.962-1.925-1.526-4.772-1.741-8.489 2.334 2.437 5.12 3.656 8.397 3.656 3.881 0 7.045-1.341 9.523-4.014s3.728-6.052 3.728-10.24zM374.917 90.942c0 2.274-0.604 4.096-1.772 5.478-1.178 1.403-2.755 2.079-4.68 2.079-1.935 0-3.512-0.697-4.68-2.079-1.178-1.382-1.782-3.205-1.782-5.478 0-2.304 0.625-4.219 1.863-5.724 1.219-1.515 2.765-2.294 4.598-2.294 2.089 0 3.687 0.666 4.803 2.027 1.106 1.382 1.649 3.369 1.649 5.99z" />
<glyph unicode="&#xe60b;" d="M221.235 209.449c-5.591 0-10.127 4.526-10.127 10.137s10.127 23.358 10.127 23.358 10.127-17.756 10.127-23.358-4.526-10.137-10.127-10.137zM213.607 250.788h-11.612v-61.911h-20.142v-9.523h11.714v-8.755h-91.166v8.755h11.725v98.038h67.737v-79.749h11.367v57.518l0.051 4.393h24.617l6.799-8.734-6.912-5.386-4.178 5.356zM166.84 262.216h-37.714v-28.15h37.714v28.15zM291.748 242.279c1.147-1.495 2.202-3.123 3.062-4.885 0.85-1.772 1.474-3.594 1.925-5.438l62.577 36.587-67.563-26.265zM262.421 242.084c-9.974-5.202-13.855-17.52-8.643-27.505s17.531-13.865 27.494-8.663c9.994 5.212 13.875 17.51 8.673 27.515-5.202 9.984-17.521 13.855-27.525 8.653zM282.358 350.249h-15.985v-41.984h15.985v41.984zM266.384 97.751h15.985v41.994h-15.985v-41.994zM367.616 231.998v-15.995h41.984v15.995h-41.984zM327.096 296.243l5.652-5.652 29.686 29.686-5.663 5.652-29.675-29.686zM327.096 151.757l29.686-29.686 5.652 5.652-29.675 29.686-5.663-5.652zM229.468 116.152h20.521v7.229h-20.521v8.919h22.129v7.434h-30.905v-41.984h31.877v7.465h-23.101v10.937zM230.441 308.265v17.756h18.391v7.219h-18.391v9.554h21.115v7.454h-29.87v-41.984h8.755z" />
<glyph unicode="&#xe60c;" d="M392.888 8.16h-273.76c-9.048 0-16.392-7.344-16.392-16.392v-7.384c0-9.056 7.344-16.392 16.392-16.392h273.76c9.048 0 16.376 7.336 16.376 16.392v7.384c0 9.048-7.328 16.392-16.376 16.392zM310.456 265.352l24.968 109.216c-2.72-0.448-5.472-0.744-8.296-0.744-12.56 0-24 4.664-32.784 12.296l-25.488-111.496c11 3.264 26.256 3.648 41.6-9.272zM382.216 15.536c0 104.080-63.112 159.808-63.112 159.808-13.112 23.768 0 72.944 0 72.944-3.080 3.784-6.168 6.92-9.28 9.544-15.36 12.92-30.6 12.536-41.592 9.272-9.88-2.928-16.336-8.168-16.336-8.168-9.832-37.704-57.368-91.8-57.368-91.8-61.472-74.576-58.184-151.608-58.184-151.608h245.872zM297.904 392.312c8.768-7.64 20.216-12.296 32.752-12.296 2.84 0 5.608 0.296 8.328 0.752 23.64 3.96 41.672 24.472 41.672 49.248 0 27.6-22.376 49.992-50 49.992-27.592 0-49.984-22.392-49.984-49.992 0-15.064 6.688-28.536 17.232-37.704z" />
<glyph unicode="&#xe60d;" d="M214.835 328.591c-64.983-13.342-112.435-55.091-112.435-104.591s47.463-91.249 112.425-104.581v209.173zM399.902 233.708h-83.804c-5.356 0-9.697-4.342-9.697-9.697s4.342-9.708 9.697-9.708h83.804c5.356 0 9.697 4.352 9.697 9.697s-4.342 9.708-9.697 9.708zM316.099 292.505h83.804c5.356 0 9.697 4.342 9.697 9.697s-4.342 9.697-9.697 9.697h-83.804c-5.356 0-9.697-4.342-9.697-9.697s4.342-9.697 9.697-9.697zM259.349 305.387v27.73c-11.991 0-23.613-1.014-34.816-2.785v-212.644c11.213-1.782 22.825-2.796 34.816-2.796v27.74c16.2 2.601 29.010 37.98 29.010 81.377 0 43.366-12.82 78.766-29.010 81.377zM399.902 155.505h-83.804c-5.356 0-9.697-4.342-9.697-9.697s4.342-9.697 9.697-9.697h83.804c5.356 0 9.697 4.342 9.697 9.697s-4.342 9.697-9.697 9.697z" />
<glyph unicode="&#xe60e;" d="M384.798 115.988c-6.062 3.594-13.046 4.024-19.231 1.966l-40.489 23.931c0.543 4.803 3.594 9.134 8.499 11.070 7.383 2.949 8.909 10.035 3.41 15.769-5.488 5.745-5.048 14.643 0.973 19.825 6 5.192 5.181 12.39-1.915 16.005-7.055 3.635-9.554 12.196-5.519 19.067 4.024 6.84 0.86 13.394-6.974 14.52-7.865 1.147-13.015 8.458-11.428 16.24s-3.512 12.953-11.325 11.479c-7.813-1.475-15.022 3.789-16.077 11.643-1.024 7.885-7.526 11.111-14.428 7.188-6.892-3.911-15.442-1.31-18.964 5.796-3.523 7.127-10.732 8.079-15.984 2.089-5.274-5.939-14.203-6.246-19.845-0.645-5.653 5.56-12.78 4.126-15.81-3.216-3.021-7.342-11.376-10.537-18.524-7.117-7.168 3.451-13.435-0.215-13.916-8.141s-7.342-13.65-15.248-12.708c-7.875 0.912-12.595-4.587-10.476-12.216 2.099-7.67-2.53-15.319-10.291-16.988-7.751-1.69-10.445-8.417-5.97-14.981 4.495-6.574 2.601-15.278-4.209-19.405-6.799-4.106-7.147-11.366-0.768-16.118 6.379-4.741 7.414-13.609 2.304-19.692-5.079-6.093-3.052-13.077 4.516-15.493 7.547-2.406 11.428-10.466 8.571-17.879-2.826-7.454 1.351-13.384 9.287-13.2 7.957 0.164 14.224-6.185 13.947-14.142-0.286-7.916 5.601-12.175 13.046-9.442 7.475 2.734 15.463-1.28 17.776-8.848 2.325-7.588 9.257-9.718 15.411-4.69 6.165 4.997 15.032 3.82 19.681-2.611 4.638-6.421 11.919-6.175 16.118 0.553 4.208 6.738 12.964 8.519 19.466 3.952 6.482-4.557 13.25-1.966 15.063 5.755 1.782 7.731 9.493 12.237 17.101 10.025 7.629-2.222 13.209 2.427 12.39 10.332-0.43 4.055 0.911 7.813 3.379 10.558l41.636-24.606c1.198-6.41 4.966-12.329 11.018-15.902 11.1-6.584 25.457-2.898 32.041 8.233 6.543 11.111 2.877 25.457-8.243 32.041zM290.406 162.375l-30.116 17.808c-0.226 9.687-5.232 19.036-14.183 24.33-9.799 5.796-21.555 5.069-30.525-0.727l16.64-9.841c5.898-3.481 7.751-11.264 4.117-17.377-3.614-6.123-11.305-8.264-17.214-4.782l-16.64 9.841c-0.768-10.629 4.27-21.299 14.090-27.095 8.94-5.305 19.538-5.161 28.15-0.686l29.061-17.183c-7.844-7.475-17.623-13.159-28.846-16.036-34.98-9.001-70.738 12.155-79.719 47.114-8.99 34.98 12.155 70.738 47.135 79.719s70.738-12.155 79.728-47.135c3.338-13.026 2.498-26.132-1.68-37.95zM304.967 153.784l-6.072 3.594c5.346 14.029 6.615 29.747 2.601 45.373-10.312 40.161-51.405 64.451-91.577 54.149-40.182-10.322-64.471-51.415-54.149-91.587 10.332-40.161 51.405-64.451 91.577-54.129 13.854 3.574 25.743 10.834 35.041 20.388l6.175-3.635c-10.322-11.049-23.757-19.425-39.486-23.47-43.95-11.305-88.74 15.166-100.034 59.126-11.305 43.961 15.186 88.74 59.136 100.024 43.95 11.294 88.75-15.166 100.035-59.136 4.516-17.51 2.949-35.103-3.246-50.698zM383.488 89.579l-10.742-6.041-10.599 6.257 0.133 12.319 10.742 6.041 10.599-6.247-0.133-12.329zM282.767 309.534l5.447-3.43c4.536-2.857 8.397-9.575 8.591-14.93l0.236-6.441c0.195-5.356 4.628-8.766 9.851-7.577l6.288 1.434c5.223 1.188 12.708-0.83 16.63-4.475l4.731-4.393c3.911-3.645 9.462-2.928 12.319 1.608l3.43 5.458c2.846 4.536 9.575 8.397 14.93 8.591l6.441 0.236c5.346 0.194 8.755 4.628 7.577 9.851l-1.444 6.298c-1.188 5.222 0.829 12.708 4.485 16.63l4.393 4.731c3.646 3.922 2.928 9.462-1.608 12.329l-5.458 3.431c-4.526 2.857-8.387 9.574-8.591 14.93l-0.226 6.441c-0.205 5.356-4.628 8.765-9.851 7.577l-6.298-1.423c-5.223-1.188-12.708 0.829-16.63 4.475l-4.731 4.393c-3.922 3.646-9.462 2.928-12.329-1.608l-3.43-5.458c-2.857-4.537-9.575-8.397-14.93-8.591l-6.441-0.236c-5.356-0.195-8.765-4.629-7.577-9.851l1.423-6.288c1.188-5.222-0.819-12.708-4.475-16.63l-4.393-4.731c-3.615-3.952-2.898-9.502 1.639-12.35zM333.916 348.918c14.613 0 26.44-11.837 26.44-26.44s-11.827-26.44-26.44-26.44c-14.602 0-26.44 11.837-26.44 26.44 0 14.592 11.848 26.44 26.44 26.44z" />
<glyph unicode="&#xe60f;" d="M416.738 265.216l-26.44 17.049-102.093-36.301-19.108 11.305h-48.292v6.298h20.726v17.162h-58.634v-17.162h20.736v-6.298h-53.945l-35.553 20.48-27.095-28.273 57.61-74.599 0.532 0.42v-9.564h124.59l119.982 96.44 17.705-11.407 9.277 14.448zM109.65 248.279l7.578 7.895 27.945-16.107v-37.786l-35.523 45.998zM263.721 182.897h-101.366v57.211h102.052l21.975-13.015 57.938 20.593-80.599-64.788zM424.96 215.152c0-7.106-5.755-12.872-12.861-12.872-7.117 0-12.882 5.755-12.882 12.872s12.882 29.666 12.882 29.666 12.861-22.558 12.861-29.666z" />
<glyph unicode="&#xe610;" d="M201.712-31.32c-79.4 0-143.984 64.6-143.984 143.984 0 79.4 64.584 143.992 143.984 143.992s143.968-64.592 143.968-143.992c0-79.384-64.568-143.984-143.968-143.984zM201.712 237.776c-68.984 0-125.104-56.12-125.104-125.112 0-68.976 56.12-125.104 125.104-125.104 68.976 0 125.104 56.128 125.104 125.104 0 68.992-56.128 125.112-125.104 125.112zM115.168 479.32c-48.672 0-88.128-39.456-88.128-88.128s39.456-88.12 88.128-88.12 88.128 39.448 88.128 88.12-39.464 88.128-88.128 88.128zM115.168 362.872c-15.64 0-28.32 12.68-28.32 28.32s12.68 28.32 28.32 28.32 28.32-12.68 28.32-28.32-12.68-28.32-28.32-28.32zM425.16 339.264c-33.016 0-59.8-26.776-59.8-59.8 0-33.016 26.784-59.8 59.8-59.8 33.040 0 59.808 26.784 59.808 59.8-0.008 33.032-26.776 59.8-59.808 59.8zM425.16 256.656c-12.592 0-22.816 10.216-22.816 22.816s10.216 22.816 22.816 22.816c12.6 0 22.824-10.208 22.824-22.816-0.008-12.6-10.224-22.816-22.824-22.816zM201.712 227.56c-63.456 0-114.888-51.44-114.888-114.896 0-63.448 51.44-114.88 114.888-114.88s114.88 51.44 114.88 114.88c0 63.464-51.424 114.896-114.88 114.896zM201.712 67.816c-24.776 0-44.848 20.096-44.848 44.848 0 24.768 20.080 44.848 44.848 44.848s44.84-20.088 44.84-44.848c0-24.76-20.064-44.848-44.84-44.848zM56.2 313.592c-11.232 8.552-20.592 19.424-27.264 31.992l21.168-192.824c4.12 15.624 10.536 30.272 18.968 43.584l-12.872 117.248zM388.192 341.616c10.32 6.152 22.272 9.816 35.088 10.144l-237.368 106.488c9.528-10.048 16.92-22.128 21.504-35.512l180.776-81.12zM425.16 207.088c-1.048 0-2.064 0.112-3.104 0.16l-63.68-88.608c0.072-1.992 0.304-3.952 0.304-5.968 0-14.688-2.176-28.832-5.944-42.32l103.288 143.72c-9.368-4.424-19.808-6.984-30.864-6.984z" />
<glyph unicode="&#xe611;" d="M211.323 218.481c10.844 10.823 28.386 10.823 39.23-0.021s10.865-28.396 0.010-39.24c-10.855-10.865-28.395-10.844-39.25 0-10.844 10.844-10.844 28.396 0.010 39.26zM241.214 250.256c0 5.683-4.608 10.281-10.281 10.281s-10.281-4.598-10.281-10.281c0-5.683 4.608-10.281 10.281-10.281s10.281 4.598 10.281 10.281zM220.651 147.415c0-5.683 4.608-10.291 10.281-10.281 5.673 0 10.281 4.598 10.281 10.281s-4.608 10.281-10.281 10.281-10.281-4.598-10.281-10.281zM292.628 198.841c0 5.673-4.598 10.281-10.281 10.281-5.693 0-10.291-4.608-10.281-10.281 0-5.683 4.598-10.301 10.281-10.281 5.683-0.021 10.281 4.598 10.281 10.281zM179.528 209.122c-5.694 0-10.281-4.608-10.281-10.281 0-5.683 4.588-10.281 10.281-10.281 5.673 0 10.281 4.598 10.281 10.281-0.010 5.673-4.608 10.281-10.281 10.281zM260.014 242.473c-4.014-4.024-4.014-10.537 0-14.551 4.034-4.014 10.526-4.024 14.551 0 4.024 4.014 4.024 10.517 0 14.53-4.014 4.014-10.526 4.024-14.551 0.020zM201.851 155.197c4.014 4.024 4.014 10.537 0 14.541-4.014 4.024-10.526 4.024-14.541 0-4.035-4.024-4.024-10.517 0-14.541 4.014-4.004 10.526-4.004 14.541 0zM260.014 169.738c-4.014-4.004-4.024-10.517 0-14.541 4.024-4.014 10.517-4.014 14.541 0 4.024 4.024 4.034 10.537 0 14.541-4.014 4.024-10.517 4.024-14.541 0zM187.31 242.463c-4.035-4.014-4.035-10.526 0-14.541 4.014-4.025 10.526-4.014 14.541 0s4.014 10.526 0 14.541-10.526 4.014-14.541 0zM227.523 369.296v-40.96c73.287 0 132.905-59.628 132.905-132.905h40.96c0 95.856-77.998 173.865-173.865 173.865zM158.474 166.615c-4.403 9.861-6.902 20.736-6.902 32.215 0 28.57 15.216 53.576 37.929 67.563 0.492 14.654 6 28.56 15.831 39.68 4.454 5.028 9.584 9.216 15.186 12.544-61.481-5.304-109.906-56.955-109.906-119.788 0-0.635 0.082-1.229 0.092-1.853 3.246-6.942 7.844-13.2 13.875-18.258 9.605-8.028 21.534-12.083 33.895-12.103zM249.508 317.573l0.020-0.42c-14.151-0.87-27.126-7.219-36.516-17.849-6.881-7.782-11.172-17.214-12.667-27.248 9.431 3.952 19.763 6.144 30.587 6.144 31.673 0 58.993-18.698 71.711-45.589 14.142-0.42 27.648-5.478 38.666-14.694 3.563-2.98 6.697-6.318 9.472-9.882-4.24 55.829-46.715 101.017-101.274 109.537zM334.736 210.053c-8.059 6.748-17.715 10.854-27.935 12.012 2.253-7.353 3.481-15.145 3.481-23.235 0-21.197-8.253-41.134-23.245-56.105-5.745-5.745-12.185-10.455-19.159-14.142 0.379-12.636-3.021-25.118-10.025-35.993-3.123-4.854-6.851-9.154-11.029-12.913 26.102 3.44 50.238 15.145 69.171 34.079 19.845 19.845 31.897 45.435 34.642 73.001-3.113 8.96-8.418 17.039-15.902 23.296zM257.413 124.078c-8.407-2.98-17.296-4.598-26.481-4.598-28.13 0-52.828 14.756-66.928 36.905-1.822-0.164-3.645-0.256-5.468-0.256-14.797 0-29.020 5.14-40.519 14.756-1.813 1.515-3.502 3.144-5.12 4.823 10.567-53.995 57.374-95.099 113.971-97.004 9.093 4.188 16.855 10.803 22.405 19.415 5.069 7.906 7.68 16.825 8.141 25.959z" />
<glyph unicode="&#xe612;" d="M256 367.36c-79.063 0-143.36-64.307-143.36-143.36s64.297-143.36 143.36-143.36 143.36 64.307 143.36 143.36-64.297 143.36-143.36 143.36zM256 336.64c56.904 0 103.936-42.435 111.483-97.28h-80.722c-5.683 11.305-17.285 19.159-30.761 19.159s-25.078-7.854-30.761-19.159h-80.722c7.547 54.845 54.579 97.28 111.483 97.28zM241.951 224c0 7.742 6.298 14.039 14.049 14.039s14.050-6.298 14.050-14.039-6.298-14.039-14.050-14.039-14.049 6.298-14.049 14.039zM144.517 208.64h80.722c3.338-6.656 8.745-12.053 15.401-15.39v-80.712c-49.797 6.841-89.272 46.285-96.123 96.103zM271.36 112.538v80.712c6.656 3.349 12.063 8.735 15.401 15.39h80.722c-6.851-49.817-46.326-89.262-96.123-96.103z" />
<glyph unicode="&#xe613;" d="M338.166 170.055l-51.21 51.21 41.564 41.564c13.497-3.133 28.242 0.461 38.779 10.998 11.53 11.52 14.695 28.088 9.851 42.578l-19.569-19.558c-6.922-6.942-18.35-6.728-25.559 0.481-7.178 7.188-7.404 18.616-0.491 25.549l19.558 19.559c-14.459 4.874-31.017 1.69-42.567-9.851-10.517-10.506-14.101-25.252-10.957-38.769l-41.564-41.554-41.543 41.543c3.133 13.507-0.482 28.252-10.988 38.779-11.52 11.53-28.078 14.705-42.567 9.861l19.559-19.568c6.933-6.922 6.727-18.361-0.492-25.559-7.189-7.189-18.596-7.404-25.549-0.492l-19.559 19.569c-4.854-14.469-1.679-31.048 9.871-42.578 10.496-10.526 25.242-14.101 38.768-10.978l41.543-41.533-51.2-51.2c-9.319 0.645-18.841-2.447-25.938-9.584-13.087-13.066-13.087-34.263 0-47.35 13.046-13.056 34.253-13.056 47.319 0 7.117 7.117 10.199 16.65 9.605 25.969l51.169 51.19 51.21-51.21c-0.635-9.318 2.468-18.852 9.584-25.959 13.056-13.077 34.274-13.077 47.339 0 13.066 13.066 13.066 34.263 0 47.339-7.117 7.117-16.65 10.209-25.969 9.554zM176.107 119.839l-17.029 4.546-4.536 17.029 12.441 12.462 17.029-4.557 4.557-17.019-12.462-12.462zM352.911 124.354l-17.019-4.536-12.462 12.462 4.546 17.019 17.029 4.557 12.473-12.462-4.567-17.039z" />
<glyph unicode="&#xe614;" d="M181.6 285.040c-0.784 2.288-2.912 3.8-5.328 3.8h-18.272c-2.416 0-4.536-1.512-5.32-3.8l-40.424-118.416c-0.576-1.744-0.288-3.624 0.76-5.096 1.048-1.504 2.744-2.376 4.568-2.376h15.824c2.44 0 4.6 1.544 5.352 3.872l11.024 33.384h33.872l11.376-33.416c0.784-2.312 2.904-3.84 5.32-3.84h16.344c0.016 0 0.024 0 0.024 0 3.104 0 5.632 2.512 5.632 5.616 0 0.808-0.16 1.6-0.488 2.296l-40.264 117.976zM176.832 219.632h-20.112l9.080 26.808c0.296 0.88 0.584 1.8 0.88 2.672 0.296-0.936 0.616-1.896 0.952-2.856l9.2-26.624zM297.024 228.992c8.256 6.224 13.032 15.352 13.032 25.584 0 10.472-4.296 19.456-12.152 25.344-8.232 6.776-19.288 9.824-35.808 9.824-10.8 0-22-1.080-29.24-2.8-2.528-0.608-4.336-2.872-4.336-5.472v-116.328c0-2.816 2.088-5.216 4.848-5.576 3.944-0.544 12.384-1.48 24.512-1.48 20.928 0 35.52 4.136 44.544 12.56 7.856 7.2 12.032 16.808 12.032 27.864 0.016 15.016-8.008 24.944-17.432 30.48zM263.312 238.592h-8.224v27.808c2.224 0.2 4.872 0.296 7.888 0.296 20.192 0 20.192-9.944 20.192-13.688 0-8.768-7.784-14.416-19.856-14.416zM262.264 181.328c-2.872 0-5.224 0.032-7.176 0.128v34.48h7.016c7.504 0 24.936-1.68 24.936-17.216 0-14.392-13.464-17.392-24.776-17.392zM366.968 237.168c-16.944 6.56-19.944 10.904-19.944 17.592 0 5.584 4.384 12.12 16.68 12.12 11.072 0 18.080-4 19.36-4.776 1.48-0.92 3.264-1.088 4.872-0.504 1.632 0.584 2.88 1.864 3.44 3.488l4.2 12.472c0.848 2.528-0.184 5.312-2.496 6.664-7.104 4.168-17.624 6.568-28.832 6.568-25.456 0-43.936-15.888-43.936-37.776 0-17.712 11.448-30.464 34.92-39.008 15.632-5.832 18.672-11.056 18.672-18.104 0-9.128-7.16-14.568-19.16-14.568-8.464 0-17.52 2.536-24.192 6.832-1.464 0.928-3.304 1.144-4.936 0.552-1.648-0.6-2.952-1.928-3.472-3.608l-4.048-12.832c-0.744-2.408 0.168-4.976 2.256-6.376 7.648-5.088 21.376-8.68 33.336-8.68 32.416 0 46.928 20.040 46.928 39.912 0.008 23.824-17 33.616-33.648 40.032zM256.312 17.544c-113.848 0-206.472 92.64-206.472 206.456 0 113.84 92.616 206.456 206.472 206.456 113.816 0 206.44-92.616 206.44-206.456 0-113.816-92.624-206.456-206.44-206.456zM256.312 397c-95.408 0-173.008-77.608-173.008-173 0-95.408 77.6-172.992 173.008-172.992 95.376 0 172.984 77.584 172.984 172.992 0 95.384-77.608 173-172.984 173zM387.368 28.76c-4.832 7.864-0.264 19.344 9.112 26.44 108.856 91.96 108.816 245.656 0 337.592-9.376 7.112-13.944 18.576-9.112 26.448 4.824 7.88 18.544 8.384 29.416 0.16 126.152-104.816 126.176-285.984-0.016-390.792-10.856-8.216-24.584-7.72-29.4 0.152zM124.632 28.76c4.848 7.864 0.28 19.344-9.12 26.44-108.824 91.96-108.824 245.656 0 337.592 9.4 7.112 13.968 18.576 9.12 26.448-4.824 7.88-18.528 8.384-29.4 0.16-126.168-104.816-126.2-285.984 0-390.792 10.872-8.216 24.584-7.72 29.4 0.152z" />
<glyph unicode="&#xe615;" d="M188.56 230.392c68.976 0 124.904 55.92 124.904 124.896 0 68.984-55.928 124.896-124.904 124.896-68.984 0-124.896-55.912-124.896-124.896 0-68.976 55.912-124.896 124.896-124.896zM423.656 275.136c-88.032 28.544-107.064-111.832-148.496-116.592-18.832 0-49.064 30.928-103.784 30.928-54.728 0-159.336-164.168-159.336-164.168-9.544-15.104-6.336-43.64 9.552-52.352 15.616-8.552 38.032-7.136 53.728 9.52s103.784 126.096 103.784 126.096 48.008-50.168 127.976-49.96c116.672 0.312 204.608 187.968 116.576 216.528zM441.8 420.528c-35.096 0-63.544-28.448-63.544-63.528 0-35.096 28.456-63.536 63.544-63.536 35.080 0 63.528 28.448 63.528 63.536s-28.456 63.528-63.528 63.528z" />
<glyph unicode="&#xe616;" d="M256.28 18.016c-113.568 0-205.976 92.408-205.976 205.976 0 113.584 92.408 205.992 205.976 205.992 113.592 0 206-92.408 206-205.992 0-113.568-92.408-205.976-206-205.976zM256.28 396.608c-95.168 0-172.6-77.424-172.6-172.616 0-95.168 77.44-172.6 172.6-172.6 95.184 0 172.608 77.44 172.608 172.6 0 95.192-77.416 172.616-172.608 172.616zM387.064 29.2c-4.816 7.856-0.264 19.296 9.112 26.392 108.576 91.72 108.576 245.088 0 336.832-9.376 7.088-13.92 18.52-9.112 26.392 4.8 7.832 18.512 8.352 29.344 0.152 125.888-104.584 125.936-285.352 0-389.912-10.832-8.224-24.552-7.696-29.344 0.144zM124.952 29.2c4.8 7.856 0.256 19.296-9.128 26.392-108.568 91.72-108.552 245.088 0 336.832 9.384 7.088 13.92 18.52 9.128 26.392-4.824 7.832-18.512 8.352-29.384 0.152-125.856-104.584-125.896-285.352 0-389.912 10.872-8.224 24.568-7.696 29.384 0.144zM267.456 145.608c-0.504-5.36-5.256-9.216-10.632-9.184-0.648 0-0.992 0-1.648 0-5.352-0.032-10.128 3.832-10.648 9.184-6.816 72.144-13.6 144.272-20.448 216.424 4.152 10.6 19.856 10.528 29.392 11.224 2.016 0.016 3.032 0.016 5.072 0 9.52-0.696 25.256-0.624 29.384-11.224-6.832-72.152-13.616-144.28-20.472-216.424zM282.344 101.096c0-14.554-11.798-26.352-26.352-26.352s-26.352 11.798-26.352 26.352c0 14.554 11.798 26.352 26.352 26.352s26.352-11.798 26.352-26.352z" />
<glyph unicode="&#xe617;" d="M510.248 232.632l-30.952 65.824c-2.864 6.128-9.016 10.032-15.784 10.032h-44.496c-9.64 0-17.464-7.808-17.464-17.456v-36.832h-6.944v25.064c0 9.648-7.816 17.456-17.456 17.456h-39.328v48.584c0 9.64-7.824 17.456-17.464 17.456h-71.64v20.824h34.784c9.64 0 17.456 7.816 17.456 17.456s-7.816 17.464-17.456 17.464h-104.44c-9.648 0-17.464-7.832-17.464-17.464 0-9.648 7.816-17.456 17.464-17.456h34.76v-20.824h-88.864c-9.632 0-17.464-7.816-17.464-17.456v-31.344h-34.216c-9.64 0-17.456-7.832-17.456-17.464v-65.808h-20.808v78.4c0 9.64-7.816 17.456-17.456 17.456-9.648 0-17.472-7.816-17.472-17.456v-191.72c0-9.656 7.824-17.488 17.472-17.488 9.64 0 17.456 7.832 17.456 17.488v78.408h20.816v-77.52c0-9.648 7.816-17.48 17.456-17.48h57.48l58.52-65.472c3.304-3.704 8.048-5.824 13.024-5.824h174.856c9.64 0 17.456 7.824 17.456 17.456v53.832h14.688v-38.104c0-9.64 7.824-17.464 17.456-17.464h34.816c6.176 0 11.88 3.264 15.024 8.56l32.888 55.576c1.592 2.688 2.424 5.744 2.424 8.896v106.968c-0.016 2.56-0.576 5.112-1.672 7.432zM476.992 123.024l-25.376-42.888h-7.4v38.128c0 9.632-7.824 17.456-17.464 17.456h-49.592c-9.64 0-17.464-7.824-17.464-17.456v-53.848h-149.584l-58.512 65.472c-3.32 3.712-8.056 5.832-13.016 5.832h-47.832v143.32h34.216c9.648 0 17.464 7.832 17.464 17.456v31.352h160.504v-48.584c0-9.64 7.808-17.456 17.448-17.456h39.328v-25.080c0-9.648 7.824-17.44 17.464-17.44h41.856c9.64 0 17.456 7.792 17.456 17.44v36.84h15.952l24.56-52.264v-98.28z" />
<glyph unicode="&#xe618;" d="M509.776 24.976c-54.36 17.504-91.992-2.224-100.208-7.24-52.536-24.256-90.328-1.6-91.784-0.704l-2.232 1.224c-65.504 30.208-113.080 3.288-120.792-1.552-43.64-23.616-81.416-1.168-82.896-0.272l-0.92 0.536c-44.616 24.6-85.112 17.664-108.712 9.336v-40.072c7.864 4.36 46.224 22.912 90.6-1.352 4.232-2.528 28.016-15.832 60.736-15.832 17.768 0 38.168 3.928 59.48 15.64l1.56 0.952c0.336 0.216 33.816 22.552 84.64-0.464 9.072-5.28 60.28-31.784 127.008-0.336l2.432 1.392c1.32 0.848 32.176 20.304 81.096-0.536v39.28zM334.696 419.056v30.712h-54.128v4.6c0 13.568-11.016 24.576-24.576 24.576-13.568 0-24.568-11-24.568-24.576v-231.136c-25.584-9.864-43.776-34.64-43.776-63.712 0-37.744 30.6-68.344 68.344-68.344 37.728 0 68.336 30.6 68.336 68.344 0 29.072-18.184 53.84-43.768 63.712v45.328h54.128v30.72h-54.128v44.528h54.128v30.712h-54.128v44.536h54.136zM187.512 102.28c-40.488-17.64-74.24 2.376-75.656 3.216l-0.92 0.552c-44.616 24.592-85.112 17.656-108.712 9.328v-40.096c7.864 4.384 46.224 22.928 90.6-1.336 4.232-2.536 28.016-15.824 60.736-15.824 17.768 0 38.168 3.92 59.48 15.616l1.56 0.968c0.072 0.048 1.928 1.24 5.208 2.784-12.616 5.696-23.664 14.208-32.296 24.792zM291.776 77.304c2.448-0.928 4.928-1.904 7.472-3.048 9.072-5.288 60.28-31.784 127.008-0.328l2.432 1.368c1.32 0.84 32.176 20.32 81.096-0.528v39.28c-54.36 17.504-91.992-2.216-100.208-7.232-40.008-18.496-71.424-9.752-84.792-4.136-8.784-10.888-20.080-19.632-33.008-25.376zM172.432 186.344c-33.48-7.824-59.344 7.48-60.576 8.232l-0.92 0.544c-44.616 24.584-85.112 17.656-108.712 9.312v-40.072c7.864 4.368 46.224 22.92 90.6-1.352 4.232-2.528 28.016-15.824 60.736-15.824 4.728 0 9.656 0.296 14.72 0.936-0.368 3.232-0.584 6.512-0.584 9.848 0 9.96 1.72 19.464 4.736 28.376zM343.848 149.064c21.936-2.864 50.344-1.176 82.4 13.928l2.432 1.376c1.32 0.856 32.176 20.312 81.096-0.528v39.288c-54.36 17.504-91.992-2.216-100.208-7.24-29.24-13.512-53.912-12.472-70.296-8.736 3.2-9.152 5.032-18.928 5.032-29.168-0.008-3.008-0.16-5.976-0.456-8.92z" />
</font>
</defs>
</svg>
